<svg xmlns="http://www.w3.org/2000/svg" width="921" height="921" viewBox="0 0 921 921">
<g>
<path d="M 917.99 436.49 C918.68,437.32 919.64,438.00 920.12,438.00 C920.62,438.00 921.00,343.96 921.00,219.00 L 921.00 701.00 C921.00,580.00 920.62,481.00 920.16,481.00 C919.70,481.00 918.73,482.80 918.00,485.00 C916.84,488.51 916.88,489.21 918.34,490.82 C920.39,493.09 920.44,494.70 918.53,496.62 C916.19,498.95 915.08,504.66 914.61,516.81 C914.36,523.02 913.71,528.64 913.16,529.31 C912.61,529.97 911.42,534.33 910.52,539.01 C909.62,543.68 908.46,549.66 907.94,552.30 C907.42,554.94 907.00,559.10 907.00,561.55 C907.00,564.00 906.60,566.00 906.11,566.00 C905.63,566.00 904.91,568.09 904.53,570.65 C904.15,573.21 902.79,577.59 901.51,580.40 C900.23,583.20 898.92,587.67 898.60,590.32 C898.28,592.97 897.34,596.10 896.51,597.29 C895.68,598.47 895.00,600.84 895.00,602.54 C895.00,604.25 893.72,608.09 892.15,611.07 C890.58,614.06 888.74,619.09 888.07,622.25 C887.40,625.41 886.27,628.59 885.55,629.31 C884.83,630.03 883.91,632.16 883.50,634.06 C883.09,635.95 881.91,638.69 880.88,640.15 C879.84,641.61 879.00,643.41 878.99,644.15 C878.99,644.89 877.88,647.30 876.53,649.50 C875.17,651.70 874.05,654.34 874.03,655.36 C874.01,656.38 872.87,658.55 871.50,660.18 C868.38,663.90 867.40,667.57 869.01,669.51 C870.00,670.71 869.97,671.00 868.86,671.00 C868.10,671.00 866.58,672.20 865.49,673.66 C864.39,675.13 862.26,677.89 860.75,679.80 C859.24,681.71 857.54,684.99 856.98,687.09 C856.41,689.20 855.51,691.19 854.98,691.51 C854.44,691.84 853.04,694.35 851.87,697.08 C850.69,699.81 849.04,702.44 848.19,702.91 C847.34,703.39 845.71,705.32 844.57,707.21 C839.98,714.82 833.23,724.58 831.67,725.86 C830.76,726.61 830.27,727.63 830.57,728.11 C830.87,728.60 830.67,729.00 830.11,729.00 C829.56,729.00 827.92,731.36 826.48,734.25 C825.04,737.14 821.75,741.64 819.18,744.24 C814.90,748.58 810.80,753.00 798.78,766.21 C791.03,774.73 787.91,778.55 786.68,781.04 C786.02,782.39 784.03,784.22 782.27,785.11 C780.51,785.99 776.47,789.32 773.28,792.50 C770.10,795.69 765.25,799.96 762.50,802.00 C759.75,804.03 756.86,806.89 756.08,808.35 C755.30,809.81 754.07,811.00 753.35,811.00 C752.64,811.00 749.45,813.50 746.27,816.57 C743.10,819.63 738.70,823.05 736.50,824.18 C734.30,825.31 731.06,827.86 729.30,829.86 C727.54,831.86 725.74,833.52 725.30,833.54 C723.86,833.60 719.58,836.20 715.50,839.49 C713.30,841.27 709.25,843.87 706.50,845.27 C703.75,846.67 700.51,848.76 699.29,849.91 C698.08,851.06 696.62,852.00 696.05,852.00 C695.48,852.00 692.95,853.58 690.42,855.51 C687.90,857.43 685.52,858.82 685.14,858.58 C684.76,858.35 683.33,859.06 681.97,860.16 C680.61,861.27 680.13,861.84 680.90,861.43 C681.81,860.96 682.06,861.09 681.62,861.80 C681.24,862.41 680.37,862.70 679.68,862.43 C678.99,862.17 677.53,862.79 676.44,863.81 C675.34,864.83 672.89,865.97 670.99,866.35 C669.09,866.73 665.95,868.29 664.01,869.81 C662.08,871.34 657.91,873.44 654.75,874.50 C651.59,875.55 649.00,876.77 649.00,877.21 C649.00,877.64 648.66,877.93 648.25,877.84 C647.39,877.65 643.27,879.26 637.43,882.05 C635.20,883.12 632.87,884.00 632.27,884.00 C631.66,884.00 631.02,884.45 630.83,885.01 C630.64,885.57 628.56,886.21 626.19,886.45 C623.82,886.68 620.00,887.75 617.69,888.82 C615.39,889.89 612.83,891.06 612.00,891.42 C611.17,891.78 609.38,892.73 608.00,893.52 C606.62,894.32 604.32,894.98 602.88,894.99 C601.45,894.99 599.10,895.92 597.66,897.05 C596.23,898.18 592.91,899.33 590.28,899.61 C587.65,899.90 584.38,900.52 583.00,901.00 C581.62,901.48 578.03,902.37 575.01,902.98 C572.00,903.58 568.59,904.69 567.46,905.44 C566.32,906.18 562.94,907.01 559.94,907.28 C553.67,907.83 551.34,908.33 550.36,909.30 C549.98,909.69 546.17,910.00 541.90,910.00 C537.63,910.00 532.86,910.50 531.32,911.11 C529.77,911.72 525.35,912.32 521.50,912.44 C515.27,912.64 508.36,913.91 504.00,915.66 C503.17,915.99 496.42,916.35 489.00,916.46 C476.25,916.65 468.00,918.12 468.00,920.20 C468.00,920.64 569.92,921.00 694.50,921.00 L 228.11 921.00 C435.70,921.00 456.16,920.86 455.61,919.42 C455.27,918.55 455.00,917.65 455.00,917.42 C455.00,917.19 453.35,917.00 451.33,917.00 C449.31,917.00 444.77,916.50 441.24,915.88 C436.24,915.01 434.29,915.04 432.46,916.02 C431.04,916.78 428.44,917.05 425.86,916.71 C423.52,916.39 422.18,916.49 422.89,916.93 C423.80,917.50 423.53,917.89 421.91,918.31 C420.42,918.70 419.11,918.29 418.08,917.11 C417.21,916.12 414.48,915.02 412.00,914.65 C409.52,914.28 402.77,913.12 397.00,912.06 C379.87,908.92 368.90,907.16 362.02,906.43 C356.19,905.82 345.95,902.79 325.50,895.63 C321.65,894.28 314.90,892.21 310.50,891.03 C297.08,887.42 292.65,885.85 288.95,883.38 C286.99,882.07 284.51,881.00 283.43,881.00 C282.35,881.00 279.76,879.84 277.68,878.43 C275.60,877.01 271.38,874.99 268.31,873.93 C265.23,872.88 262.22,871.61 261.61,871.12 C261.00,870.63 258.02,869.19 255.00,867.92 C251.98,866.65 249.27,865.33 249.00,865.00 C247.75,863.48 238.94,858.19 233.50,855.68 C222.87,850.77 217.55,847.78 215.28,845.44 C214.06,844.18 212.04,842.83 210.78,842.43 C209.53,842.03 205.80,839.30 202.50,836.36 C199.20,833.42 195.95,831.01 195.28,831.00 C194.61,831.00 193.06,829.65 191.84,828.00 C190.62,826.35 189.14,825.00 188.54,825.00 C187.95,825.00 185.29,823.20 182.62,821.00 C179.96,818.80 177.43,817.00 177.00,817.00 C175.53,817.00 166.57,809.03 165.29,806.58 C164.58,805.24 163.00,803.82 161.77,803.43 C159.23,802.62 151.16,794.90 148.52,790.75 C147.56,789.24 146.25,788.00 145.61,788.00 C144.65,788.00 138.46,782.52 134.50,778.16 C133.95,777.56 131.48,775.10 129.00,772.71 C126.53,770.31 123.38,766.81 122.00,764.93 C120.62,763.04 116.97,759.03 113.88,756.00 C110.79,752.97 107.94,749.49 107.56,748.25 C107.18,747.01 106.48,746.00 106.01,746.00 C105.55,746.00 104.14,744.31 102.90,742.25 C101.65,740.19 99.43,737.38 97.97,736.00 C94.26,732.53 88.21,723.65 85.96,718.40 C84.92,715.98 83.49,714.00 82.77,714.00 C81.42,714.00 80.57,712.67 76.84,704.76 C75.61,702.15 73.86,699.77 72.94,699.48 C72.03,699.19 69.59,695.70 67.53,691.73 C62.68,682.38 60.00,678.00 57.78,675.78 C56.80,674.80 55.44,671.95 54.77,669.45 C54.11,666.95 52.76,664.04 51.78,662.99 C50.80,661.94 50.00,660.56 50.00,659.93 C50.00,658.09 46.57,648.53 45.79,648.18 C44.41,647.56 41.26,641.46 40.66,638.27 C40.33,636.50 38.96,633.35 37.62,631.27 C36.28,629.20 34.86,625.52 34.48,623.10 C34.09,620.68 33.12,617.14 32.32,615.24 C31.53,613.33 31.10,611.17 31.38,610.45 C31.66,609.72 30.99,607.99 29.90,606.60 C28.81,605.21 27.21,601.70 26.36,598.79 C25.50,595.88 24.46,593.05 24.05,592.50 C23.63,591.95 22.57,588.35 21.68,584.50 C19.48,575.00 18.16,569.52 16.48,563.00 C15.71,559.97 15.06,556.27 15.04,554.78 C15.02,553.28 14.14,550.13 13.09,547.78 C10.54,542.06 9.06,531.41 10.22,527.16 C11.13,523.86 10.98,522.74 7.44,507.00 C5.62,498.87 5.59,493.34 7.36,492.30 C9.03,491.32 10.50,482.43 9.13,481.58 C8.60,481.25 7.45,481.69 6.58,482.56 C5.14,484.00 5.00,483.63 4.96,478.32 C4.93,475.12 4.22,470.70 3.37,468.50 C1.17,462.77 0.52,459.59 1.71,460.32 C3.32,461.31 5.33,453.50 4.80,448.30 C4.53,445.66 4.61,442.15 4.97,440.50 C5.62,437.55 5.64,437.57 6.40,441.74 C6.83,444.08 7.65,446.28 8.22,446.64 C8.91,447.06 9.06,446.28 8.67,444.39 C8.34,442.80 7.80,439.92 7.47,438.00 C7.14,436.08 6.38,433.50 5.78,432.29 C4.55,429.76 5.44,412.61 7.02,408.45 C7.56,407.03 8.00,403.93 8.00,401.56 C8.00,399.19 8.68,395.34 9.50,393.00 C10.32,390.66 11.00,387.14 11.00,385.18 C11.00,381.21 12.54,372.34 14.67,364.00 C15.44,360.98 16.69,355.56 17.45,351.96 C18.20,348.36 19.80,343.77 20.99,341.74 C22.23,339.63 22.90,337.27 22.56,336.19 C22.21,335.10 22.74,333.31 23.83,331.91 C24.99,330.41 25.96,326.96 26.37,322.81 C26.74,319.13 27.92,314.18 29.00,311.81 C30.08,309.44 30.97,306.27 30.98,304.76 C31.00,301.91 37.34,288.92 40.94,284.35 C42.07,282.91 43.00,280.85 43.00,279.77 C43.00,278.69 43.63,276.38 44.41,274.65 C45.18,272.92 46.07,270.32 46.39,268.88 C46.71,267.44 48.48,264.07 50.32,261.38 C52.17,258.70 55.38,252.68 57.46,248.00 C59.54,243.32 62.26,238.38 63.49,237.00 C66.42,233.73 72.36,222.70 70.75,223.52 C70.06,223.86 70.74,223.18 72.25,221.99 C73.76,220.80 75.00,219.03 75.00,218.05 C75.00,217.07 76.34,214.75 77.98,212.89 C79.63,211.02 80.98,208.95 80.98,208.29 C80.99,207.62 81.79,206.64 82.75,206.11 C83.71,205.59 85.35,202.98 86.39,200.33 C87.43,197.67 89.72,193.93 91.47,192.00 C96.81,186.14 101.34,179.95 104.61,174.09 C106.32,171.01 108.24,168.61 108.86,168.75 C109.49,168.89 109.89,168.66 109.75,168.25 C109.61,167.84 109.72,167.49 110.00,167.48 C111.45,167.42 116.91,161.49 117.43,159.41 C117.77,158.09 118.44,157.00 118.92,157.00 C119.41,157.00 120.73,155.43 121.87,153.50 C123.00,151.57 124.58,150.00 125.37,150.00 C126.79,150.00 129.60,147.43 137.82,138.61 C140.20,136.06 142.53,134.21 143.00,134.50 C143.47,134.79 144.14,134.13 144.49,133.04 C144.83,131.95 146.15,130.24 147.40,129.26 C148.66,128.27 150.23,126.44 150.90,125.18 C151.57,123.93 153.26,122.47 154.66,121.94 C156.05,121.41 157.43,120.09 157.71,119.00 C157.99,117.91 158.57,117.24 158.99,117.50 C159.83,118.01 164.24,114.69 170.77,108.61 C173.08,106.47 175.98,104.03 177.23,103.18 C178.48,102.34 181.14,100.20 183.14,98.42 C187.05,94.96 196.41,88.52 201.37,85.88 C203.04,84.99 205.33,82.96 206.45,81.38 C207.58,79.80 209.40,78.36 210.50,78.19 C211.60,78.03 213.42,76.79 214.54,75.44 C215.66,74.10 217.12,73.00 217.79,73.00 C218.45,73.00 220.00,72.00 221.22,70.78 C222.45,69.55 223.97,68.48 224.60,68.38 C228.82,67.76 239.88,61.26 240.83,58.85 C241.02,58.38 242.26,58.00 243.60,58.00 C246.57,58.00 255.40,53.86 261.24,49.72 C262.62,48.74 264.67,47.76 265.80,47.54 C266.93,47.32 269.58,46.23 271.68,45.12 C278.82,41.33 288.49,37.18 291.75,36.51 C293.54,36.14 295.00,35.50 295.00,35.08 C295.00,34.66 296.91,33.75 299.25,33.06 C301.59,32.37 305.98,30.91 309.00,29.83 C312.02,28.74 317.58,27.02 321.34,26.00 C325.09,24.99 329.06,23.35 330.14,22.37 C331.48,21.16 333.37,20.67 335.97,20.86 C338.09,21.02 341.19,20.43 342.86,19.57 C344.53,18.71 347.25,18.00 348.90,18.00 C350.55,18.00 352.94,17.60 354.20,17.10 C358.26,15.52 376.70,11.35 383.50,10.47 C384.60,10.33 387.98,9.53 391.00,8.70 C394.02,7.87 398.84,7.17 401.71,7.15 C404.57,7.13 407.76,6.66 408.80,6.11 C409.83,5.56 411.65,5.36 412.84,5.67 C414.04,5.98 415.67,5.69 416.47,5.02 C417.41,4.24 419.34,4.05 421.89,4.48 C424.40,4.91 426.70,4.69 428.18,3.89 C429.45,3.20 433.20,2.49 436.50,2.32 C468.60,0.65 431.37,0.26 229.25,0.14 L 0.00 0.00 L 921.00 0.00 L 692.75 0.19 C569.31,0.30 470.66,0.54 470.66,0.73 C470.66,0.73 470.69,0.74 470.75,0.74 C475.11,0.99 477.00,1.50 477.00,2.43 C477.00,3.16 477.67,4.32 478.50,5.00 C479.70,5.99 480.31,5.99 481.52,4.99 C483.23,3.57 493.21,4.10 510.92,6.55 C516.66,7.35 524.39,8.00 528.12,8.00 C533.00,8.00 535.81,8.54 538.19,9.93 C540.51,11.29 544.42,12.08 551.23,12.57 C556.57,12.95 560.71,13.66 560.42,14.14 C560.12,14.61 560.84,15.00 562.01,15.00 C563.18,15.00 565.11,15.52 566.30,16.16 C568.90,17.55 583.47,20.94 587.01,20.97 C588.40,20.99 591.10,21.84 593.01,22.86 C594.93,23.89 599.06,25.47 602.20,26.37 C605.33,27.28 608.17,28.47 608.51,29.01 C608.84,29.56 610.55,30.01 612.31,30.03 C614.06,30.05 616.37,30.72 617.44,31.53 C618.51,32.34 620.21,33.00 621.22,33.00 C622.24,33.00 626.31,34.58 630.28,36.50 C634.25,38.42 638.22,40.00 639.11,40.00 C640.00,40.00 641.87,40.90 643.27,42.00 C644.67,43.10 646.91,44.00 648.25,44.00 C649.59,44.00 651.51,44.90 652.51,46.01 C653.50,47.11 654.51,47.82 654.75,47.59 C655.43,46.90 661.00,49.11 661.00,50.08 C661.00,50.56 662.91,51.93 665.25,53.11 C667.59,54.30 669.79,55.73 670.15,56.29 C670.52,56.85 671.98,57.43 673.41,57.59 C674.84,57.74 677.95,59.17 680.31,60.77 C682.68,62.37 687.13,64.86 690.21,66.32 C693.29,67.78 697.16,70.11 698.82,71.50 C700.48,72.90 703.92,74.96 706.46,76.08 C709.00,77.21 712.85,80.05 715.01,82.40 C717.34,84.92 720.52,87.14 722.78,87.82 C724.89,88.45 727.68,90.10 728.98,91.48 C730.28,92.87 731.83,94.00 732.42,94.01 C733.02,94.02 736.42,96.75 740.00,100.09 C743.58,103.43 748.32,107.24 750.54,108.55 C752.77,109.87 755.55,112.25 756.72,113.84 C757.90,115.43 760.80,117.97 763.18,119.49 C765.56,121.02 769.75,124.95 772.50,128.23 C775.25,131.51 779.22,135.30 781.32,136.65 C783.41,138.00 786.00,140.57 787.05,142.37 C788.11,144.16 791.96,148.26 795.61,151.48 C799.26,154.70 802.75,158.53 803.37,159.98 C803.99,161.43 806.62,164.84 809.21,167.56 C820.05,178.94 830.00,190.11 830.00,190.89 C830.00,191.35 831.35,193.42 833.00,195.50 C834.65,197.58 836.00,200.03 836.00,200.96 C836.00,201.89 837.15,203.73 838.55,205.05 C839.96,206.37 841.92,209.26 842.91,211.47 C843.91,213.69 845.81,216.65 847.13,218.05 C848.45,219.46 851.04,222.94 852.87,225.80 C854.71,228.66 856.50,231.00 856.85,231.01 C857.21,231.01 858.35,233.76 859.40,237.11 C860.44,240.46 862.39,244.49 863.71,246.07 C865.04,247.65 867.18,251.64 868.48,254.95 C869.78,258.26 871.80,262.32 872.99,263.98 C874.17,265.64 874.77,267.01 874.32,267.02 C873.87,267.02 873.98,267.36 874.57,267.77 C876.15,268.85 880.00,277.31 880.00,279.69 C880.00,280.83 880.68,282.32 881.51,283.01 C882.34,283.70 883.30,286.04 883.65,288.22 C884.00,290.40 885.41,293.52 886.79,295.16 C888.32,296.98 889.37,299.56 889.48,301.82 C889.68,305.63 891.77,311.00 893.05,311.00 C893.46,311.00 894.26,313.71 894.85,317.01 C895.43,320.32 896.60,324.02 897.45,325.24 C898.30,326.45 899.00,328.20 899.00,329.12 C899.00,330.05 900.57,335.68 902.49,341.65 C904.41,347.62 905.99,353.40 906.01,354.50 C906.02,355.60 906.81,359.01 907.77,362.08 C908.99,365.96 909.94,367.52 910.92,367.19 C911.90,366.87 912.12,367.24 911.66,368.46 C909.99,372.80 910.02,375.29 911.89,386.03 C912.99,392.34 914.42,403.12 915.06,410.00 C915.71,416.88 916.60,423.45 917.04,424.61 C917.49,425.78 917.60,428.58 917.29,430.85 C916.94,433.45 917.20,435.54 917.99,436.49 ZM 435.00 775.99 C438.02,776.45 442.52,776.62 445.00,776.37 C452.02,775.64 509.60,775.77 518.25,776.54 C522.51,776.91 527.03,776.96 528.30,776.64 L 530.61 776.06 L 530.63 756.78 C530.66,715.40 530.68,706.27 530.79,700.00 C530.85,696.42 531.09,679.55 531.31,662.50 C531.54,645.45 532.07,626.96 532.50,621.42 C533.16,612.72 533.03,610.97 531.55,608.71 C530.17,606.61 529.95,604.72 530.42,599.05 C530.74,595.17 531.26,588.89 531.58,585.08 C531.95,580.68 531.74,577.38 531.01,576.01 C529.14,572.53 530.75,549.98 533.08,546.91 C534.64,544.86 535.20,544.68 536.86,545.70 C539.06,547.05 555.98,545.61 559.45,543.77 C560.52,543.20 565.92,542.59 571.45,542.42 C576.98,542.25 583.97,541.60 587.00,540.99 C590.03,540.38 594.08,539.75 596.00,539.59 C597.92,539.43 600.36,538.93 601.41,538.48 C602.87,537.86 603.13,537.98 602.51,538.98 C602.49,539.01 602.48,539.04 602.46,539.07 C602.30,539.32 602.18,539.52 602.22,539.66 C602.41,540.24 605.47,539.89 621.04,538.07 L 622.50 537.90 C631.81,536.82 644.99,533.51 642.92,532.77 C640.84,532.03 652.61,530.67 655.22,531.35 C658.02,532.08 681.17,527.44 686.55,525.07 C688.78,524.09 692.72,522.97 695.29,522.58 C701.33,521.68 716.85,516.44 718.91,514.61 C720.84,512.89 727.67,510.00 729.78,510.00 C730.62,510.00 732.81,508.86 734.64,507.46 C736.47,506.06 739.87,504.25 742.18,503.43 C744.50,502.62 747.10,501.34 747.95,500.59 C748.80,499.85 750.40,498.96 751.50,498.62 C753.33,498.06 756.33,494.08 758.19,489.75 C758.60,488.79 759.35,488.00 759.86,488.00 C761.92,488.00 765.23,478.50 765.27,472.51 C765.29,467.37 764.84,465.82 762.11,461.79 C756.05,452.85 745.43,444.82 736.82,442.67 C735.35,442.30 733.54,441.40 732.80,440.66 C730.26,438.12 718.48,433.22 713.50,432.65 C703.91,431.54 701.72,431.00 700.59,429.46 C699.94,428.56 696.82,427.54 693.16,427.02 C689.69,426.53 685.77,425.43 684.46,424.57 C683.03,423.63 679.88,423.00 676.65,423.00 C673.67,423.00 669.04,422.36 666.36,421.58 C663.69,420.80 659.68,419.69 657.46,419.10 C652.09,417.70 630.18,415.81 627.84,416.55 C626.83,416.87 626.00,416.67 626.00,416.11 C626.00,415.55 624.31,414.79 622.25,414.41 C620.19,414.04 617.96,413.32 617.31,412.80 C616.66,412.28 612.61,411.60 608.31,411.29 C604.01,410.98 599.75,410.35 598.83,409.87 C597.92,409.40 589.62,408.75 580.40,408.41 C571.18,408.08 562.56,407.40 561.25,406.91 C559.94,406.41 553.32,406.00 546.54,406.00 C535.75,406.00 534.12,405.78 533.48,404.25 C531.95,400.58 530.80,356.83 532.01,348.00 C533.70,335.64 534.09,334.95 539.23,335.13 C557.04,335.78 620.40,334.75 625.42,333.73 C630.10,332.78 631.43,332.79 631.75,333.76 C632.33,335.49 663.08,335.52 664.80,333.80 C665.46,333.14 666.00,333.03 666.00,333.55 C666.00,334.09 672.22,334.63 680.50,334.80 C688.93,334.97 695.00,334.71 695.00,334.17 C695.00,333.66 696.28,332.71 697.85,332.06 C700.65,330.90 700.69,330.77 700.40,323.69 C700.23,319.74 699.61,310.20 699.01,302.50 C697.92,288.65 698.17,284.12 700.97,267.02 C701.68,262.73 701.71,259.59 701.06,257.74 C700.52,256.20 699.99,247.64 699.88,238.72 C699.77,229.80 699.64,220.25 699.59,217.50 C699.49,212.02 697.34,207.92 693.74,206.32 C692.27,205.67 684.40,205.64 671.00,206.23 C659.72,206.73 641.28,206.89 630.00,206.58 C618.72,206.28 605.45,206.42 600.51,206.90 C593.80,207.54 589.22,207.39 582.51,206.29 C576.24,205.26 571.07,205.03 565.50,205.55 C557.26,206.32 553.03,206.41 535.00,206.19 C529.22,206.12 502.45,206.05 475.50,206.04 C448.55,206.02 419.75,205.97 411.50,205.93 C327.81,205.46 240.76,205.82 233.24,206.67 C228.45,207.20 227.82,207.57 226.33,210.72 C224.97,213.58 224.92,214.33 226.03,215.02 C227.90,216.18 228.56,230.58 226.88,233.72 C225.90,235.56 225.88,236.78 226.81,239.36 C228.34,243.58 228.34,250.49 226.81,252.93 C225.92,254.36 225.87,257.78 226.62,266.67 C227.16,273.17 227.59,291.21 227.56,306.75 L 227.50 335.00 L 230.00 334.98 C231.98,334.97 232.19,334.77 231.00,334.00 C229.88,333.28 230.44,333.03 233.19,333.02 C235.22,333.01 237.16,333.45 237.50,334.00 C237.85,334.57 241.90,334.92 246.81,334.83 L 255.50 334.65 L 249.50 333.95 C246.20,333.56 249.35,333.53 256.50,333.87 C270.11,334.53 284.67,334.66 299.00,334.26 C316.54,333.77 390.45,335.05 391.26,335.86 C391.72,336.32 392.09,337.56 392.07,338.60 C392.05,339.65 392.04,354.84 392.04,372.36 C392.05,393.41 391.70,404.66 391.00,405.51 C390.19,406.48 386.93,406.66 377.53,406.25 C367.04,405.80 364.55,405.98 361.44,407.46 C358.48,408.86 357.33,408.98 355.58,408.04 C352.56,406.43 348.86,406.51 339.14,408.38 C334.54,409.27 327.51,410.00 323.52,410.00 C317.83,410.00 315.73,410.42 313.77,411.97 C311.67,413.62 309.86,413.91 302.38,413.77 C297.50,413.68 291.92,414.10 290.00,414.71 C282.36,417.14 277.08,418.15 267.54,419.01 C256.73,419.98 248.94,421.54 244.99,423.54 C243.61,424.23 241.13,425.04 239.49,425.33 C237.84,425.63 233.12,426.85 229.00,428.05 C224.88,429.26 219.93,430.43 218.00,430.67 C216.07,430.91 213.41,431.81 212.08,432.68 C210.75,433.55 208.05,434.47 206.08,434.71 C204.11,434.96 200.93,436.00 199.00,437.02 C197.07,438.05 192.35,440.44 188.50,442.34 C184.65,444.24 180.71,446.75 179.74,447.92 C178.77,449.10 176.61,450.33 174.95,450.66 C167.50,452.15 157.28,465.92 159.94,470.88 C161.28,473.39 161.32,477.00 160.00,477.00 C159.45,477.00 159.00,477.89 159.00,478.97 C159.00,481.63 163.65,492.00 164.84,492.00 C165.36,492.00 167.30,493.41 169.14,495.14 C175.19,500.78 180.46,504.74 182.95,505.51 C184.30,505.92 188.76,508.03 192.87,510.19 C203.79,515.95 212.57,519.04 224.83,521.47 C236.94,523.86 248.00,526.96 248.00,527.96 C248.00,528.31 251.66,529.13 256.12,529.78 C260.59,530.43 264.75,531.37 265.37,531.88 C266.78,533.02 271.82,533.74 284.00,534.55 C289.23,534.90 294.85,535.77 296.50,536.48 C298.15,537.19 303.33,538.06 308.00,538.42 C320.75,539.40 327.40,540.16 328.40,540.77 C328.92,541.07 328.95,540.73 328.49,539.98 C327.87,538.98 328.14,538.85 329.59,539.44 C331.97,540.42 332.57,540.55 343.00,542.39 C347.67,543.21 357.12,544.18 364.00,544.54 C378.52,545.31 389.91,547.25 391.12,549.16 C391.59,549.90 392.07,553.42 392.19,557.00 C392.50,566.13 392.99,607.99 392.90,617.00 C392.30,674.88 392.83,771.85 393.76,773.56 C394.82,775.53 395.60,775.61 412.18,775.39 C421.71,775.26 431.98,775.53 435.00,775.99 ZM 439.69 517.91 C438.35,519.25 434.00,519.36 434.00,518.05 C434.00,517.52 432.54,516.86 430.75,516.58 C425.09,515.70 409.10,515.36 409.58,516.14 C410.53,517.67 401.53,517.54 400.33,516.00 C399.18,514.52 395.02,514.17 372.00,513.66 C367.88,513.57 363.96,513.14 363.30,512.72 C362.64,512.29 358.37,511.71 353.80,511.42 C349.24,511.12 341.78,510.20 337.23,509.36 C332.69,508.52 326.39,507.85 323.23,507.86 C320.08,507.87 315.25,507.48 312.50,507.00 C309.75,506.52 303.67,505.62 299.00,505.00 C287.42,503.48 268.72,499.92 267.50,499.01 C266.95,498.60 263.80,498.02 260.50,497.72 C257.19,497.42 251.37,495.84 247.50,494.19 C243.65,492.55 237.15,490.45 233.05,489.53 C228.96,488.61 223.78,486.79 221.55,485.49 C219.32,484.19 215.25,482.40 212.50,481.50 C209.75,480.61 206.38,478.63 205.00,477.11 C203.62,475.58 201.74,474.06 200.80,473.72 C198.17,472.77 195.61,467.18 197.02,465.47 C197.66,464.71 197.88,463.62 197.53,463.04 C197.17,462.47 197.39,462.00 198.00,462.00 C198.61,462.00 198.84,461.55 198.50,461.00 C198.16,460.45 198.39,460.00 199.00,460.00 C199.61,460.00 199.87,459.60 199.56,459.10 C199.26,458.61 199.64,457.97 200.40,457.68 C201.16,457.38 204.52,455.06 207.87,452.52 C211.21,449.98 214.97,447.65 216.23,447.36 C217.48,447.06 219.62,446.59 221.00,446.30 C222.38,446.01 225.94,444.66 228.91,443.28 C231.89,441.91 237.51,440.33 241.41,439.77 C245.49,439.19 251.49,437.36 255.53,435.47 C261.76,432.56 268.29,430.94 274.50,430.77 C279.47,430.64 296.53,427.81 296.79,427.07 C296.95,426.62 301.11,426.42 306.04,426.62 C311.54,426.84 315.00,426.60 315.00,425.99 C315.00,425.45 316.78,425.00 318.97,425.00 C321.15,425.00 324.86,424.36 327.22,423.59 C329.70,422.77 336.08,422.12 342.42,422.04 C348.42,421.96 355.85,421.34 358.92,420.65 C362.09,419.94 366.44,419.69 369.00,420.06 C371.48,420.43 376.42,420.36 380.00,419.92 C387.95,418.93 390.69,419.52 391.28,422.34 C391.82,424.91 392.50,458.55 392.50,482.50 C392.50,491.85 392.74,499.73 393.03,500.00 C393.32,500.27 394.01,501.57 394.57,502.88 L 395.59 505.25 L 462.44 505.20 C516.75,505.16 529.45,504.90 530.15,503.82 C530.63,503.10 530.97,491.48 530.91,478.00 C530.79,450.09 532.49,420.98 534.31,419.73 C534.97,419.28 537.53,419.20 540.00,419.56 C542.47,419.91 551.03,420.41 559.00,420.67 C573.70,421.15 584.62,422.18 595.50,424.10 C598.80,424.68 603.53,425.36 606.00,425.60 C623.60,427.34 631.19,428.34 635.84,429.55 C638.78,430.31 641.48,430.87 641.84,430.79 C642.20,430.71 644.35,431.18 646.62,431.83 C648.88,432.47 653.79,432.89 657.53,432.75 C662.27,432.58 664.46,432.88 664.75,433.75 C664.98,434.44 665.80,435.00 666.58,435.00 C667.36,435.00 668.00,435.45 668.00,436.00 C668.00,436.55 669.25,437.00 670.78,437.00 C672.32,437.00 676.13,437.90 679.26,439.00 C682.39,440.10 686.50,441.00 688.39,441.00 C690.29,441.00 694.14,442.16 696.96,443.57 C699.78,444.99 703.25,446.36 704.66,446.62 C710.33,447.64 722.19,455.72 725.75,460.97 C729.14,465.98 728.65,468.43 723.08,474.31 C719.56,478.01 716.43,480.16 712.16,481.80 C708.86,483.07 705.62,484.75 704.96,485.55 C704.30,486.35 702.47,487.00 700.90,487.00 C699.33,487.00 696.57,487.90 694.77,489.00 C692.97,490.09 690.24,490.99 688.70,491.00 C687.16,491.00 684.69,491.60 683.20,492.33 C681.72,493.07 677.35,494.22 673.50,494.89 C669.65,495.57 665.52,496.76 664.32,497.54 C663.12,498.32 659.58,499.23 656.45,499.56 C653.33,499.90 648.97,500.81 646.76,501.58 C644.55,502.36 641.12,503.02 639.12,503.04 C637.13,503.06 632.35,503.74 628.50,504.56 C624.65,505.38 614.97,506.44 607.00,506.91 C599.03,507.38 589.58,508.50 586.00,509.39 C578.05,511.38 562.51,512.94 546.50,513.35 C535.52,513.63 527.27,515.12 526.00,517.05 C525.35,518.04 519.87,517.02 520.49,516.02 C520.74,515.61 518.82,515.37 516.22,515.49 C508.55,515.84 500.00,517.17 500.00,518.02 C500.00,519.21 485.16,518.46 480.00,517.02 C474.47,515.47 441.40,516.20 439.69,517.91 ZM 9.02 460.75 C9.01,461.44 9.45,462.00 10.00,462.00 C10.55,462.00 10.99,460.76 10.98,459.25 C10.97,457.11 10.76,456.83 10.00,458.00 C9.47,458.83 9.02,460.06 9.02,460.75 Z" fill="rgb(51,158,116)"/>
<path d="M 435.00 775.99 C431.98,775.53 421.71,775.26 412.18,775.39 C395.60,775.61 394.82,775.53 393.76,773.56 C392.83,771.85 392.30,674.88 392.90,617.00 C392.99,607.99 392.50,566.13 392.19,557.00 C392.07,553.42 391.59,549.90 391.12,549.16 C389.91,547.25 378.52,545.31 364.00,544.54 C357.12,544.18 347.67,543.21 343.00,542.39 C332.57,540.55 331.97,540.42 329.59,539.44 C328.14,538.85 327.87,538.98 328.49,539.98 C328.95,540.73 328.92,541.07 328.40,540.77 C327.40,540.16 320.75,539.40 308.00,538.42 C303.33,538.06 298.15,537.19 296.50,536.48 C294.85,535.77 289.23,534.90 284.00,534.55 C271.82,533.74 266.78,533.02 265.37,531.88 C264.75,531.37 260.59,530.43 256.12,529.78 C251.66,529.13 248.00,528.31 248.00,527.96 C248.00,526.96 236.94,523.86 224.83,521.47 C212.57,519.04 203.79,515.95 192.87,510.19 C188.76,508.03 184.30,505.92 182.95,505.51 C180.46,504.74 175.19,500.78 169.14,495.14 C167.30,493.41 165.36,492.00 164.84,492.00 C163.65,492.00 159.00,481.63 159.00,478.97 C159.00,477.89 159.45,477.00 160.00,477.00 C161.32,477.00 161.28,473.39 159.94,470.88 C157.28,465.92 167.50,452.15 174.95,450.66 C176.61,450.33 178.77,449.10 179.74,447.92 C180.71,446.75 184.65,444.24 188.50,442.34 C192.35,440.44 197.07,438.05 199.00,437.02 C200.93,436.00 204.11,434.96 206.08,434.71 C208.05,434.47 210.75,433.55 212.08,432.68 C213.41,431.81 216.07,430.91 218.00,430.67 C219.93,430.43 224.88,429.26 229.00,428.05 C233.12,426.85 237.84,425.63 239.49,425.33 C241.13,425.04 243.61,424.23 244.99,423.54 C248.94,421.54 256.73,419.98 267.54,419.01 C277.08,418.15 282.36,417.14 290.00,414.71 C291.92,414.10 297.50,413.68 302.38,413.77 C309.86,413.91 311.67,413.62 313.77,411.97 C315.73,410.42 317.83,410.00 323.52,410.00 C327.51,410.00 334.54,409.27 339.14,408.38 C348.86,406.51 352.56,406.43 355.58,408.04 C357.33,408.98 358.48,408.86 361.44,407.46 C364.55,405.98 367.04,405.80 377.53,406.25 C386.93,406.66 390.19,406.48 391.00,405.51 C391.70,404.66 392.05,393.41 392.04,372.36 C392.04,354.84 392.05,339.65 392.07,338.60 C392.09,337.56 391.72,336.32 391.26,335.86 C390.45,335.05 316.54,333.77 299.00,334.26 C284.67,334.66 270.11,334.53 256.50,333.87 C249.35,333.53 246.20,333.56 249.50,333.95 L 255.50 334.65 L 246.81 334.83 C241.90,334.92 237.85,334.57 237.50,334.00 C237.16,333.45 235.22,333.01 233.19,333.02 C230.44,333.03 229.88,333.28 231.00,334.00 C232.19,334.77 231.98,334.97 230.00,334.98 L 227.50 335.00 L 227.56 306.75 C227.59,291.21 227.16,273.17 226.62,266.67 C225.87,257.78 225.92,254.36 226.81,252.93 C228.34,250.49 228.34,243.58 226.81,239.36 C225.88,236.78 225.90,235.56 226.88,233.72 C228.56,230.58 227.90,216.18 226.03,215.02 C224.92,214.33 224.97,213.58 226.33,210.72 C227.82,207.57 228.45,207.20 233.24,206.67 C240.76,205.82 327.81,205.46 411.50,205.93 C419.75,205.97 448.55,206.02 475.50,206.04 C502.45,206.05 529.22,206.12 535.00,206.19 C553.03,206.41 557.26,206.32 565.50,205.55 C571.07,205.03 576.24,205.26 582.51,206.29 C589.22,207.39 593.80,207.54 600.51,206.90 C605.45,206.42 618.72,206.28 630.00,206.58 C641.28,206.89 659.72,206.73 671.00,206.23 C684.40,205.64 692.27,205.67 693.74,206.32 C697.34,207.92 699.49,212.02 699.59,217.50 C699.64,220.25 699.77,229.80 699.88,238.72 C699.99,247.64 700.52,256.20 701.06,257.74 C701.71,259.59 701.68,262.73 700.97,267.02 C698.17,284.12 697.92,288.65 699.01,302.50 C699.61,310.20 700.23,319.74 700.40,323.69 C700.69,330.77 700.65,330.90 697.85,332.06 C696.28,332.71 695.00,333.66 695.00,334.17 C695.00,334.71 688.93,334.97 680.50,334.80 C672.22,334.63 666.00,334.09 666.00,333.55 C666.00,333.03 665.46,333.14 664.80,333.80 C663.08,335.52 632.33,335.49 631.75,333.76 C631.43,332.79 630.10,332.78 625.42,333.73 C620.40,334.75 557.04,335.78 539.23,335.13 C534.09,334.95 533.70,335.64 532.01,348.00 C530.80,356.83 531.95,400.58 533.48,404.25 C534.12,405.78 535.75,406.00 546.54,406.00 C553.32,406.00 559.94,406.41 561.25,406.91 C562.56,407.40 571.18,408.08 580.40,408.41 C589.62,408.75 597.92,409.40 598.83,409.87 C599.75,410.35 604.01,410.98 608.31,411.29 C612.61,411.60 616.66,412.28 617.31,412.80 C617.96,413.32 620.19,414.04 622.25,414.41 C624.31,414.79 626.00,415.55 626.00,416.11 C626.00,416.67 626.83,416.87 627.84,416.55 C630.18,415.81 652.09,417.70 657.46,419.10 C659.68,419.69 663.69,420.80 666.36,421.58 C669.04,422.36 673.67,423.00 676.65,423.00 C679.88,423.00 683.03,423.63 684.46,424.57 C685.77,425.43 689.69,426.53 693.16,427.02 C696.82,427.54 699.94,428.56 700.59,429.46 C701.72,431.00 703.91,431.54 713.50,432.65 C718.48,433.22 730.26,438.12 732.80,440.66 C733.54,441.40 735.35,442.30 736.82,442.67 C745.43,444.82 756.05,452.85 762.11,461.79 C764.84,465.82 765.29,467.37 765.27,472.51 C765.23,478.50 761.92,488.00 759.86,488.00 C759.35,488.00 758.60,488.79 758.19,489.75 C756.33,494.08 753.33,498.06 751.50,498.62 C750.40,498.96 748.80,499.85 747.95,500.59 C747.10,501.34 744.50,502.62 742.18,503.43 C739.87,504.25 736.47,506.06 734.64,507.46 C732.81,508.86 730.62,510.00 729.78,510.00 C727.67,510.00 720.84,512.89 718.91,514.61 C716.85,516.44 701.33,521.68 695.29,522.58 C692.72,522.97 688.78,524.09 686.55,525.07 C681.17,527.44 658.02,532.08 655.22,531.35 C652.61,530.67 640.84,532.03 642.92,532.77 C644.99,533.51 631.81,536.82 622.50,537.90 L 621.04 538.07 C605.47,539.89 602.41,540.24 602.22,539.66 C602.18,539.52 602.30,539.32 602.46,539.07 C602.48,539.04 602.49,539.01 602.51,538.98 C603.13,537.98 602.87,537.86 601.41,538.48 C600.36,538.93 597.92,539.43 596.00,539.59 C594.08,539.75 590.03,540.38 587.00,540.99 C583.97,541.60 576.98,542.25 571.45,542.42 C565.92,542.59 560.52,543.20 559.45,543.77 C555.98,545.61 539.06,547.05 536.86,545.70 C535.20,544.68 534.64,544.86 533.08,546.91 C530.75,549.98 529.14,572.53 531.01,576.01 C531.74,577.38 531.95,580.68 531.58,585.08 C531.26,588.89 530.74,595.17 530.42,599.05 C529.95,604.72 530.17,606.61 531.55,608.71 C533.03,610.97 533.16,612.72 532.50,621.42 C532.07,626.96 531.54,645.45 531.31,662.50 C531.09,679.55 530.85,696.42 530.79,700.00 C530.68,706.27 530.66,715.40 530.63,756.78 L 530.61 776.06 L 528.30 776.64 C527.03,776.96 522.51,776.91 518.25,776.54 C509.60,775.77 452.02,775.64 445.00,776.37 C442.52,776.62 438.02,776.45 435.00,775.99 ZM 395.86 694.26 L 396.00 774.01 L 529.50 773.50 L 529.55 659.48 C529.57,596.77 529.94,544.91 530.36,544.23 C530.83,543.46 533.52,543.00 537.50,543.00 C546.22,543.00 577.00,540.39 597.00,537.95 C709.37,524.25 773.76,496.68 761.56,467.49 C759.40,462.33 751.72,454.66 744.05,450.03 C712.57,431.01 637.94,414.97 557.50,409.94 C547.60,409.32 537.25,408.52 534.50,408.15 L 529.50 407.48 L 529.50 332.50 L 697.02 331.99 L 696.50 209.50 L 465.00 209.23 C337.67,209.08 232.48,209.20 231.24,209.50 L 228.98 210.04 L 229.50 331.50 L 395.50 332.50 L 395.69 367.50 C395.79,386.75 395.63,403.70 395.33,405.17 C395.22,405.73 395.19,406.18 395.00,406.55 C394.18,408.19 390.37,408.33 363.50,410.03 C294.98,414.38 228.17,427.45 194.01,443.18 C176.62,451.19 167.49,458.20 163.01,466.99 C158.01,476.78 162.83,486.90 177.36,497.13 C185.78,503.06 195.80,507.83 213.50,514.33 C247.36,526.77 312.89,538.40 369.00,541.95 C378.08,542.52 387.92,543.26 390.87,543.58 L 396.23 544.17 L 395.98 579.34 C395.83,598.68 395.78,650.39 395.86,694.26 ZM 0.00 0.00 L 229.25 0.14 C338.08,0.21 399.10,0.35 427.24,0.73 C397.09,0.45 320.20,0.22 227.25,0.15 L 0.00 0.00 L 0.15 227.75 C0.22,349.10 0.62,441.94 1.04,441.94 C1.06,441.94 1.07,441.80 1.09,441.50 C1.93,426.79 3.53,409.59 5.00,399.50 C5.49,396.20 6.40,389.90 7.03,385.50 C7.67,381.10 9.54,371.42 11.19,364.00 C27.63,290.18 59.47,225.44 108.72,165.72 C127.92,142.43 168.78,104.49 193.00,87.47 C269.01,34.05 350.26,5.67 440.50,1.03 C440.66,1.02 440.78,1.01 440.85,1.00 C450.44,1.32 447.65,1.74 436.50,2.32 C433.20,2.49 429.45,3.20 428.18,3.89 C426.70,4.69 424.40,4.91 421.89,4.48 C419.34,4.05 417.41,4.24 416.47,5.02 C415.67,5.69 414.04,5.98 412.84,5.67 C411.65,5.36 409.83,5.56 408.80,6.11 C407.76,6.66 404.57,7.13 401.71,7.15 C398.84,7.17 394.02,7.87 391.00,8.70 C387.98,9.53 384.60,10.33 383.50,10.47 C376.70,11.35 358.26,15.52 354.20,17.10 C352.94,17.60 350.55,18.00 348.90,18.00 C347.25,18.00 344.53,18.71 342.86,19.57 C341.19,20.43 338.09,21.02 335.97,20.86 C333.37,20.67 331.48,21.16 330.14,22.37 C329.06,23.35 325.09,24.99 321.34,26.00 C317.58,27.02 312.02,28.74 309.00,29.83 C305.98,30.91 301.59,32.37 299.25,33.06 C296.91,33.75 295.00,34.66 295.00,35.08 C295.00,35.50 293.54,36.14 291.75,36.51 C288.49,37.18 278.82,41.33 271.68,45.12 C269.58,46.23 266.93,47.32 265.80,47.54 C264.67,47.76 262.62,48.74 261.24,49.72 C255.40,53.86 246.57,58.00 243.60,58.00 C242.26,58.00 241.02,58.38 240.83,58.85 C239.88,61.26 228.82,67.76 224.60,68.38 C223.97,68.48 222.45,69.55 221.22,70.78 C220.00,72.00 218.45,73.00 217.79,73.00 C217.12,73.00 215.66,74.10 214.54,75.44 C213.42,76.79 211.60,78.03 210.50,78.19 C209.40,78.36 207.58,79.80 206.45,81.38 C205.33,82.96 203.04,84.99 201.37,85.88 C196.41,88.52 187.05,94.96 183.14,98.42 C181.14,100.20 178.48,102.34 177.23,103.18 C175.98,104.03 173.08,106.47 170.77,108.61 C164.24,114.69 159.83,118.01 158.99,117.50 C158.57,117.24 157.99,117.91 157.71,119.00 C157.43,120.09 156.05,121.41 154.66,121.94 C153.26,122.47 151.57,123.93 150.90,125.18 C150.23,126.44 148.66,128.27 147.40,129.26 C146.15,130.24 144.83,131.95 144.49,133.04 C144.14,134.13 143.47,134.79 143.00,134.50 C142.53,134.21 140.20,136.06 137.82,138.61 C129.60,147.43 126.79,150.00 125.37,150.00 C124.58,150.00 123.00,151.57 121.87,153.50 C120.73,155.43 119.41,157.00 118.92,157.00 C118.44,157.00 117.77,158.09 117.43,159.41 C116.91,161.49 111.45,167.42 110.00,167.48 C109.72,167.49 109.61,167.84 109.75,168.25 C109.89,168.66 109.49,168.89 108.86,168.75 C108.24,168.61 106.32,171.01 104.61,174.09 C101.34,179.95 96.81,186.14 91.47,192.00 C89.72,193.93 87.43,197.67 86.39,200.33 C85.35,202.98 83.71,205.59 82.75,206.11 C81.79,206.64 80.99,207.62 80.98,208.29 C80.98,208.95 79.63,211.02 77.98,212.89 C76.34,214.75 75.00,217.07 75.00,218.05 C75.00,219.03 73.76,220.80 72.25,221.99 C70.74,223.18 70.06,223.86 70.75,223.52 C72.36,222.70 66.42,233.73 63.49,237.00 C62.26,238.38 59.54,243.32 57.46,248.00 C55.38,252.68 52.17,258.70 50.32,261.38 C48.48,264.07 46.71,267.44 46.39,268.88 C46.07,270.32 45.18,272.92 44.41,274.65 C43.63,276.38 43.00,278.69 43.00,279.77 C43.00,280.85 42.07,282.91 40.94,284.35 C37.34,288.92 31.00,301.91 30.98,304.76 C30.97,306.27 30.08,309.44 29.00,311.81 C27.92,314.18 26.74,319.13 26.37,322.81 C25.96,326.96 24.99,330.41 23.83,331.91 C22.74,333.31 22.21,335.10 22.56,336.19 C22.90,337.27 22.23,339.63 20.99,341.74 C19.80,343.77 18.20,348.36 17.45,351.96 C16.69,355.56 15.44,360.98 14.67,364.00 C12.54,372.34 11.00,381.21 11.00,385.18 C11.00,387.14 10.32,390.66 9.50,393.00 C8.68,395.34 8.00,399.19 8.00,401.56 C8.00,403.93 7.56,407.03 7.02,408.45 C5.44,412.61 4.55,429.76 5.78,432.29 C6.38,433.50 7.14,436.08 7.47,438.00 C7.80,439.92 8.34,442.80 8.67,444.39 C9.06,446.28 8.91,447.06 8.22,446.64 C7.65,446.28 6.83,444.08 6.40,441.74 C5.64,437.57 5.62,437.55 4.97,440.50 C4.61,442.15 4.53,445.66 4.80,448.30 C5.33,453.50 3.32,461.31 1.71,460.32 C0.52,459.59 1.17,462.77 3.37,468.50 C4.22,470.70 4.93,475.12 4.96,478.32 C5.00,483.63 5.14,484.00 6.58,482.56 C7.45,481.69 8.60,481.25 9.13,481.58 C10.50,482.43 9.03,491.32 7.36,492.30 C5.59,493.34 5.62,498.87 7.44,507.00 C10.98,522.74 11.13,523.86 10.22,527.16 C9.06,531.41 10.54,542.06 13.09,547.78 C14.14,550.13 15.02,553.28 15.04,554.78 C15.06,556.27 15.71,559.97 16.48,563.00 C18.16,569.52 19.48,575.00 21.68,584.50 C22.57,588.35 23.63,591.95 24.05,592.50 C24.46,593.05 25.50,595.88 26.36,598.79 C27.21,601.70 28.81,605.21 29.90,606.60 C30.99,607.99 31.66,609.72 31.38,610.45 C31.10,611.17 31.53,613.33 32.32,615.24 C33.12,617.14 34.09,620.68 34.48,623.10 C34.86,625.52 36.28,629.20 37.62,631.27 C38.96,633.35 40.33,636.50 40.66,638.27 C41.26,641.46 44.41,647.56 45.79,648.18 C46.57,648.53 50.00,658.09 50.00,659.93 C50.00,660.56 50.80,661.94 51.78,662.99 C52.76,664.04 54.11,666.95 54.77,669.45 C55.44,671.95 56.80,674.80 57.78,675.78 C60.00,678.00 62.68,682.38 67.53,691.73 C69.59,695.70 72.03,699.19 72.94,699.48 C73.86,699.77 75.61,702.15 76.84,704.76 C80.57,712.67 81.42,714.00 82.77,714.00 C83.49,714.00 84.92,715.98 85.96,718.40 C88.21,723.65 94.26,732.53 97.97,736.00 C99.43,737.38 101.65,740.19 102.90,742.25 C104.14,744.31 105.55,746.00 106.01,746.00 C106.48,746.00 107.18,747.01 107.56,748.25 C107.94,749.49 110.79,752.97 113.88,756.00 C116.97,759.03 120.62,763.04 122.00,764.93 C123.38,766.81 126.53,770.31 129.00,772.71 C131.48,775.10 133.95,777.56 134.50,778.16 C138.46,782.52 144.65,788.00 145.61,788.00 C146.25,788.00 147.56,789.24 148.52,790.75 C151.16,794.90 159.23,802.62 161.77,803.43 C163.00,803.82 164.58,805.24 165.29,806.58 C166.57,809.03 175.53,817.00 177.00,817.00 C177.43,817.00 179.96,818.80 182.62,821.00 C185.29,823.20 187.95,825.00 188.54,825.00 C189.14,825.00 190.62,826.35 191.84,828.00 C193.06,829.65 194.61,831.00 195.28,831.00 C195.95,831.01 199.20,833.42 202.50,836.36 C205.80,839.30 209.53,842.03 210.78,842.43 C212.04,842.83 214.06,844.18 215.28,845.44 C217.55,847.78 222.87,850.77 233.50,855.68 C238.94,858.19 247.75,863.48 249.00,865.00 C249.27,865.33 251.98,866.65 255.00,867.92 C258.02,869.19 261.00,870.63 261.61,871.12 C262.22,871.61 265.23,872.88 268.31,873.93 C271.38,874.99 275.60,877.01 277.68,878.43 C279.76,879.84 282.35,881.00 283.43,881.00 C284.51,881.00 286.99,882.07 288.95,883.38 C292.65,885.85 297.08,887.42 310.50,891.03 C314.90,892.21 321.65,894.28 325.50,895.63 C345.95,902.79 356.19,905.82 362.02,906.43 C368.90,907.16 379.87,908.92 397.00,912.06 C402.77,913.12 409.52,914.28 412.00,914.65 C414.48,915.02 417.21,916.12 418.08,917.11 C419.11,918.29 420.42,918.70 421.91,918.31 C423.53,917.89 423.80,917.50 422.89,916.93 C422.18,916.49 423.52,916.39 425.86,916.71 C428.44,917.05 431.04,916.78 432.46,916.02 C434.29,915.04 436.24,915.01 441.24,915.88 C444.77,916.50 449.31,917.00 451.33,917.00 C453.35,917.00 455.00,917.19 455.00,917.42 C455.00,917.65 455.27,918.55 455.61,919.42 C456.16,920.86 435.70,921.00 228.11,921.00 L 0.00 921.00 ZM 0.15 693.25 L 0.00 921.00 L 221.75 920.86 C344.34,920.78 431.40,920.39 431.41,919.94 C431.41,919.92 431.27,919.91 431.00,919.89 C392.09,917.32 349.52,908.61 312.00,895.53 C294.92,889.57 291.47,888.31 287.73,886.61 C285.95,885.81 280.67,883.52 276.00,881.51 C271.33,879.51 260.12,874.05 251.11,869.38 C185.89,835.61 127.41,784.62 85.63,725.12 C34.39,652.15 6.21,570.56 1.14,480.50 C1.11,480.06 1.09,479.84 1.07,479.84 C0.59,479.85 0.23,562.92 0.15,693.25 ZM 552.50 516.55 C541.13,517.33 523.55,517.89 499.84,518.21 C499.95,518.16 500.00,518.09 500.00,518.02 C500.00,517.17 508.55,515.84 516.22,515.49 C518.82,515.37 520.74,515.61 520.49,516.02 C519.87,517.02 525.35,518.04 526.00,517.05 C527.27,515.12 535.52,513.63 546.50,513.35 C562.51,512.94 578.05,511.38 586.00,509.39 C589.58,508.50 599.03,507.38 607.00,506.91 C614.97,506.44 624.65,505.38 628.50,504.56 C632.35,503.74 637.13,503.06 639.12,503.04 C641.12,503.02 644.55,502.36 646.76,501.58 C648.97,500.81 653.33,499.90 656.45,499.56 C659.58,499.23 663.12,498.32 664.32,497.54 C665.52,496.76 669.65,495.57 673.50,494.89 C677.35,494.22 681.72,493.07 683.20,492.33 C684.69,491.60 687.16,491.00 688.70,491.00 C690.24,490.99 692.97,490.09 694.77,489.00 C696.57,487.90 699.33,487.00 700.90,487.00 C702.47,487.00 704.30,486.35 704.96,485.55 C705.62,484.75 708.86,483.07 712.16,481.80 C716.43,480.16 719.56,478.01 723.08,474.31 C728.65,468.43 729.14,465.98 725.75,460.97 C722.19,455.72 710.33,447.64 704.66,446.62 C703.25,446.36 699.78,444.99 696.96,443.57 C694.14,442.16 690.29,441.00 688.39,441.00 C686.50,441.00 682.39,440.10 679.26,439.00 C676.13,437.90 672.32,437.00 670.78,437.00 C669.25,437.00 668.00,436.55 668.00,436.00 C668.00,435.45 667.36,435.00 666.58,435.00 C665.80,435.00 664.98,434.44 664.75,433.75 C664.46,432.88 662.27,432.58 657.53,432.75 C653.79,432.89 648.88,432.47 646.62,431.83 C644.35,431.18 642.20,430.71 641.84,430.79 C641.48,430.87 638.78,430.31 635.84,429.55 C631.19,428.34 623.60,427.34 606.00,425.60 C603.53,425.36 598.80,424.68 595.50,424.10 C584.62,422.18 573.70,421.15 559.00,420.67 C551.03,420.41 542.47,419.91 540.00,419.56 C537.53,419.20 534.97,419.28 534.31,419.73 C532.49,420.98 530.79,450.09 530.91,478.00 C530.97,491.48 530.63,503.10 530.15,503.82 C529.45,504.90 516.75,505.16 462.44,505.20 L 395.59 505.25 L 394.57 502.88 C394.01,501.57 393.32,500.27 393.03,500.00 C392.74,499.73 392.50,491.85 392.50,482.50 C392.50,458.55 391.82,424.91 391.28,422.34 C390.69,419.52 387.95,418.93 380.00,419.92 C376.42,420.36 371.48,420.43 369.00,420.06 C366.44,419.69 362.09,419.94 358.92,420.65 C355.85,421.34 348.42,421.96 342.42,422.04 C336.08,422.12 329.70,422.77 327.22,423.59 C324.86,424.36 321.15,425.00 318.97,425.00 C316.78,425.00 315.00,425.45 315.00,425.99 C315.00,426.60 311.54,426.84 306.04,426.62 C301.11,426.42 296.95,426.62 296.79,427.07 C296.53,427.81 279.47,430.64 274.50,430.77 C268.29,430.94 261.76,432.56 255.53,435.47 C251.49,437.36 245.49,439.19 241.41,439.77 C237.51,440.33 231.89,441.91 228.91,443.28 C225.94,444.66 222.38,446.01 221.00,446.30 C219.62,446.59 217.48,447.06 216.23,447.36 C214.97,447.65 211.21,449.98 207.87,452.52 C204.52,455.06 201.16,457.38 200.40,457.68 C199.64,457.97 199.26,458.61 199.56,459.10 C199.87,459.60 199.61,460.00 199.00,460.00 C198.39,460.00 198.16,460.45 198.50,461.00 C198.84,461.55 198.61,462.00 198.00,462.00 C197.39,462.00 197.17,462.47 197.53,463.04 C197.88,463.62 197.66,464.71 197.02,465.47 C195.61,467.18 198.17,472.77 200.80,473.72 C201.74,474.06 203.62,475.58 205.00,477.11 C206.38,478.63 209.75,480.61 212.50,481.50 C215.25,482.40 219.32,484.19 221.55,485.49 C223.78,486.79 228.96,488.61 233.05,489.53 C237.15,490.45 243.65,492.55 247.50,494.19 C251.37,495.84 257.19,497.42 260.50,497.72 C263.80,498.02 266.95,498.60 267.50,499.01 C268.72,499.92 287.42,503.48 299.00,505.00 C303.67,505.62 309.75,506.52 312.50,507.00 C315.25,507.48 320.08,507.87 323.23,507.86 C326.39,507.85 332.69,508.52 337.23,509.36 C341.78,510.20 349.24,511.12 353.80,511.42 C358.37,511.71 362.64,512.29 363.30,512.72 C363.96,513.14 367.88,513.57 372.00,513.66 C395.02,514.17 399.18,514.52 400.33,516.00 C401.53,517.54 410.53,517.67 409.58,516.14 C409.10,515.36 425.09,515.70 430.75,516.58 C432.54,516.86 434.00,517.52 434.00,518.05 C434.00,518.23 434.08,518.38 434.23,518.51 C379.83,518.18 350.54,515.88 306.22,509.46 C248.99,501.16 209.34,488.62 196.32,474.71 C192.01,470.10 191.79,469.58 192.27,465.32 C192.68,461.70 193.63,459.93 197.09,456.41 C211.75,441.47 259.12,428.56 326.83,421.03 C344.08,419.11 384.49,416.00 392.16,416.00 L 396.00 416.00 L 396.00 502.77 L 424.75 503.53 C450.18,504.20 527.72,503.67 528.48,502.82 C528.63,502.65 529.02,483.15 529.32,459.50 C529.63,435.85 529.91,416.33 529.94,416.11 C530.03,415.54 553.29,416.89 572.00,418.56 C644.25,425.02 696.68,436.33 720.02,450.51 C737.82,461.33 735.18,474.72 713.10,485.57 C685.13,499.33 619.78,511.93 552.50,516.55 ZM 468.00 920.20 C468.00,918.12 476.25,916.65 489.00,916.46 C496.42,916.35 503.17,915.99 504.00,915.66 C508.36,913.91 515.27,912.64 521.50,912.44 C525.35,912.32 529.77,911.72 531.32,911.11 C532.86,910.50 537.63,910.00 541.90,910.00 C546.17,910.00 549.98,909.69 550.36,909.30 C551.34,908.33 553.67,907.83 559.94,907.28 C562.94,907.01 566.32,906.18 567.46,905.44 C568.59,904.69 572.00,903.58 575.01,902.98 C578.03,902.37 581.62,901.48 583.00,901.00 C584.38,900.52 587.65,899.90 590.28,899.61 C592.91,899.33 596.23,898.18 597.66,897.05 C599.10,895.92 601.45,894.99 602.88,894.99 C604.32,894.98 606.62,894.32 608.00,893.52 C609.38,892.73 611.17,891.78 612.00,891.42 C612.83,891.06 615.39,889.89 617.69,888.82 C620.00,887.75 623.82,886.68 626.19,886.45 C628.56,886.21 630.64,885.57 630.83,885.01 C631.02,884.45 631.66,884.00 632.27,884.00 C632.87,884.00 635.20,883.12 637.43,882.05 C643.27,879.26 647.39,877.65 648.25,877.84 C648.66,877.93 649.00,877.64 649.00,877.21 C649.00,876.77 651.59,875.55 654.75,874.50 C657.91,873.44 662.08,871.34 664.01,869.81 C665.95,868.29 669.09,866.73 670.99,866.35 C672.89,865.97 675.34,864.83 676.44,863.81 C677.53,862.79 678.99,862.17 679.68,862.43 C680.37,862.70 681.24,862.41 681.62,861.80 C682.06,861.09 681.81,860.96 680.90,861.43 C680.13,861.84 680.61,861.27 681.97,860.16 C683.33,859.06 684.76,858.35 685.14,858.58 C685.52,858.82 687.90,857.43 690.42,855.51 C692.95,853.58 695.48,852.00 696.05,852.00 C696.62,852.00 698.08,851.06 699.29,849.91 C700.51,848.76 703.75,846.67 706.50,845.27 C709.25,843.87 713.30,841.27 715.50,839.49 C719.58,836.20 723.86,833.60 725.30,833.54 C725.74,833.52 727.54,831.86 729.30,829.86 C731.06,827.86 734.30,825.31 736.50,824.18 C738.70,823.05 743.10,819.63 746.27,816.57 C749.45,813.50 752.64,811.00 753.35,811.00 C754.07,811.00 755.30,809.81 756.08,808.35 C756.86,806.89 759.75,804.03 762.50,802.00 C765.25,799.96 770.10,795.69 773.28,792.50 C776.47,789.32 780.51,785.99 782.27,785.11 C784.03,784.22 786.02,782.39 786.68,781.04 C787.91,778.55 791.03,774.73 798.78,766.21 C810.80,753.00 814.90,748.58 819.18,744.24 C821.75,741.64 825.04,737.14 826.48,734.25 C827.92,731.36 829.56,729.00 830.11,729.00 C830.67,729.00 830.87,728.60 830.57,728.11 C830.27,727.63 830.76,726.61 831.67,725.86 C833.23,724.58 839.98,714.82 844.57,707.21 C845.71,705.32 847.34,703.39 848.19,702.91 C849.04,702.44 850.69,699.81 851.87,697.08 C853.04,694.35 854.44,691.84 854.98,691.51 C855.51,691.19 856.41,689.20 856.98,687.09 C857.54,684.99 859.24,681.71 860.75,679.80 C862.26,677.89 864.39,675.13 865.49,673.66 C866.58,672.20 868.10,671.00 868.86,671.00 C869.20,671.00 869.44,670.97 869.58,670.90 C855.38,697.82 838.02,725.24 822.10,745.00 C801.76,770.24 774.03,798.40 751.50,816.70 C735.12,830.00 734.00,830.82 713.50,844.43 C683.18,864.56 648.85,882.03 619.04,892.51 C615.44,893.77 609.80,895.80 606.50,897.01 C600.53,899.20 587.78,902.93 572.50,906.95 C563.40,909.34 533.00,915.37 522.50,916.87 C516.34,917.74 498.16,919.43 485.00,920.34 C484.97,920.34 484.95,920.34 484.95,920.35 C484.95,920.52 581.13,920.73 700.75,920.83 L 921.00 921.00 L 920.87 705.25 C920.80,589.28 920.39,497.35 919.96,497.35 C919.95,497.35 919.94,497.40 919.93,497.50 C915.33,543.08 908.07,575.47 892.47,620.00 C887.20,635.03 879.16,652.71 869.72,670.63 C869.69,670.40 869.45,670.05 869.01,669.51 C867.40,667.57 868.38,663.90 871.50,660.18 C872.87,658.55 874.01,656.38 874.03,655.36 C874.05,654.34 875.17,651.70 876.53,649.50 C877.88,647.30 878.99,644.89 878.99,644.15 C879.00,643.41 879.84,641.61 880.88,640.15 C881.91,638.69 883.09,635.95 883.50,634.06 C883.91,632.16 884.83,630.03 885.55,629.31 C886.27,628.59 887.40,625.41 888.07,622.25 C888.74,619.09 890.58,614.06 892.15,611.07 C893.72,608.09 895.00,604.25 895.00,602.54 C895.00,600.84 895.68,598.47 896.51,597.29 C897.34,596.10 898.28,592.97 898.60,590.32 C898.92,587.67 900.23,583.20 901.51,580.40 C902.79,577.59 904.15,573.21 904.53,570.65 C904.91,568.09 905.63,566.00 906.11,566.00 C906.60,566.00 907.00,564.00 907.00,561.55 C907.00,559.10 907.42,554.94 907.94,552.30 C908.46,549.66 909.62,543.68 910.52,539.01 C911.42,534.33 912.61,529.97 913.16,529.31 C913.71,528.64 914.36,523.02 914.61,516.81 C915.08,504.66 916.19,498.95 918.53,496.62 C920.44,494.70 920.39,493.09 918.34,490.82 C916.88,489.21 916.84,488.51 918.00,485.00 C918.73,482.80 919.70,481.00 920.16,481.00 C920.62,481.00 921.00,580.00 921.00,701.00 L 921.00 921.00 L 694.50 921.00 C569.92,921.00 468.00,920.64 468.00,920.20 ZM 911.59 367.09 C911.43,367.06 911.21,367.10 910.92,367.19 C909.94,367.52 908.99,365.96 907.77,362.08 C906.81,359.01 906.02,355.60 906.01,354.50 C905.99,353.40 904.41,347.62 902.49,341.65 C900.57,335.68 899.00,330.05 899.00,329.12 C899.00,328.20 898.30,326.45 897.45,325.24 C896.60,324.02 895.43,320.32 894.85,317.01 C894.26,313.71 893.46,311.00 893.05,311.00 C891.77,311.00 889.68,305.63 889.48,301.82 C889.37,299.56 888.32,296.98 886.79,295.16 C885.41,293.52 884.00,290.40 883.65,288.22 C883.30,286.04 882.34,283.70 881.51,283.01 C880.68,282.32 880.00,280.83 880.00,279.69 C880.00,277.31 876.15,268.85 874.57,267.77 C873.98,267.36 873.87,267.02 874.32,267.02 C874.77,267.01 874.17,265.64 872.99,263.98 C871.80,262.32 869.78,258.26 868.48,254.95 C867.18,251.64 865.04,247.65 863.71,246.07 C862.39,244.49 860.44,240.46 859.40,237.11 C858.35,233.76 857.21,231.01 856.85,231.01 C856.50,231.00 854.71,228.66 852.87,225.80 C851.04,222.94 848.45,219.46 847.13,218.05 C845.81,216.65 843.91,213.69 842.91,211.47 C841.92,209.26 839.96,206.37 838.55,205.05 C837.15,203.73 836.00,201.89 836.00,200.96 C836.00,200.03 834.65,197.58 833.00,195.50 C831.35,193.42 830.00,191.35 830.00,190.89 C830.00,190.11 820.05,178.94 809.21,167.56 C806.62,164.84 803.99,161.43 803.37,159.98 C802.75,158.53 799.26,154.70 795.61,151.48 C791.96,148.26 788.11,144.16 787.05,142.37 C786.00,140.57 783.41,138.00 781.32,136.65 C779.22,135.30 775.25,131.51 772.50,128.23 C769.75,124.95 765.56,121.02 763.18,119.49 C760.80,117.97 757.90,115.43 756.72,113.84 C755.55,112.25 752.77,109.87 750.54,108.55 C748.32,107.24 743.58,103.43 740.00,100.09 C736.42,96.75 733.02,94.02 732.42,94.01 C731.83,94.00 730.28,92.87 728.98,91.48 C727.68,90.10 724.89,88.45 722.78,87.82 C720.52,87.14 717.34,84.92 715.01,82.40 C712.85,80.05 709.00,77.21 706.46,76.08 C703.92,74.96 700.48,72.90 698.82,71.50 C697.16,70.11 693.29,67.78 690.21,66.32 C687.13,64.86 682.68,62.37 680.31,60.77 C677.95,59.17 674.84,57.74 673.41,57.59 C671.98,57.43 670.52,56.85 670.15,56.29 C669.79,55.73 667.59,54.30 665.25,53.11 C662.91,51.93 661.00,50.56 661.00,50.08 C661.00,49.11 655.43,46.90 654.75,47.59 C654.51,47.82 653.50,47.11 652.51,46.01 C651.51,44.90 649.59,44.00 648.25,44.00 C646.91,44.00 644.67,43.10 643.27,42.00 C641.87,40.90 640.00,40.00 639.11,40.00 C638.22,40.00 634.25,38.42 630.28,36.50 C626.31,34.58 622.24,33.00 621.22,33.00 C620.21,33.00 618.51,32.34 617.44,31.53 C616.37,30.72 614.06,30.05 612.31,30.03 C610.55,30.01 608.84,29.56 608.51,29.01 C608.17,28.47 605.33,27.28 602.20,26.37 C599.06,25.47 594.93,23.89 593.01,22.86 C591.10,21.84 588.40,20.99 587.01,20.97 C583.47,20.94 568.90,17.55 566.30,16.16 C565.11,15.52 563.18,15.00 562.01,15.00 C560.84,15.00 560.12,14.61 560.42,14.14 C560.71,13.66 556.57,12.95 551.23,12.57 C544.42,12.08 540.51,11.29 538.19,9.93 C535.81,8.54 533.00,8.00 528.12,8.00 C524.39,8.00 516.66,7.35 510.92,6.55 C493.21,4.10 483.23,3.57 481.52,4.99 C480.31,5.99 479.70,5.99 478.50,5.00 C477.67,4.32 477.00,3.16 477.00,2.43 C477.00,1.50 475.11,0.99 470.75,0.74 C470.69,0.74 470.66,0.73 470.66,0.73 C470.66,0.54 569.31,0.30 692.75,0.19 L 921.00 0.00 L 694.25 0.20 C572.40,0.31 475.84,0.53 475.84,0.69 C475.84,0.70 475.89,0.70 476.00,0.70 C489.15,1.16 517.12,3.88 531.38,6.08 C579.53,13.50 624.15,27.84 667.64,49.86 C683.36,57.82 711.80,74.42 719.50,80.13 C756.75,107.76 764.61,114.39 787.55,137.53 C823.43,173.74 851.64,213.12 873.49,257.51 C891.45,294.01 903.76,329.22 911.59,367.09 ZM 917.99 436.49 C917.20,435.54 916.94,433.45 917.29,430.85 C917.60,428.58 917.49,425.78 917.04,424.61 C916.60,423.45 915.71,416.88 915.06,410.00 C914.42,403.12 912.99,392.34 911.89,386.03 C910.02,375.29 909.99,372.80 911.66,368.46 C911.71,368.32 911.75,368.19 911.79,368.07 C914.43,381.01 916.56,394.27 918.21,408.00 C919.12,415.62 919.98,422.23 920.43,425.25 C920.33,433.53 920.23,438.00 920.12,438.00 C919.64,438.00 918.68,437.32 917.99,436.49 ZM 439.69 517.91 C441.40,516.20 474.47,515.47 480.00,517.02 C482.08,517.60 485.72,518.07 489.34,518.34 C484.15,518.39 478.70,518.44 473.00,518.47 C460.46,518.55 449.11,518.57 438.67,518.53 C439.08,518.37 439.44,518.16 439.69,517.91 ZM 9.02 460.75 C9.02,460.06 9.47,458.83 10.00,458.00 C10.76,456.83 10.97,457.11 10.98,459.25 C10.99,460.76 10.55,462.00 10.00,462.00 C9.45,462.00 9.01,461.44 9.02,460.75 Z" fill="rgb(65,156,123)"/>
<path d="M 487.49 0.59 C487.35,0.60 487.28,0.61 487.28,0.61 C487.28,0.61 487.28,0.62 487.28,0.62 C487.62,0.95 494.56,1.85 502.70,2.61 C509.79,3.26 516.81,4.07 523.75,5.01 C508.70,3.08 487.08,1.09 476.00,0.70 C475.89,0.70 475.84,0.70 475.84,0.69 C475.84,0.66 479.93,0.62 487.49,0.59 ZM 323.89 21.80 C278.26,36.25 234.83,58.07 193.00,87.47 C235.38,57.68 278.83,35.88 323.89,21.80 ZM 138.02 786.90 C171.35,819.81 209.88,848.03 251.11,869.38 C209.33,847.74 171.23,819.84 138.02,786.90 ZM 5.41 396.72 C5.60,395.21 5.80,393.63 6.01,392.00 C8.04,376.23 12.11,357.67 17.59,338.49 C15.24,346.88 13.11,355.38 11.19,364.00 C9.54,371.42 7.67,381.10 7.03,385.50 C6.55,388.86 5.90,393.33 5.41,396.72 ZM 427.24 0.73 C433.21,0.81 437.70,0.90 440.85,1.00 C440.78,1.01 440.66,1.02 440.50,1.03 C436.06,1.26 431.65,1.54 427.26,1.88 C430.00,1.53 431.96,1.19 432.50,0.97 C432.51,0.97 432.51,0.96 432.51,0.96 C432.51,0.85 427.01,0.75 417.02,0.65 C420.86,0.67 424.28,0.70 427.24,0.73 ZM 35.86 285.60 C36.98,282.87 38.12,280.16 39.27,277.50 C46.34,261.16 54.85,244.64 64.58,228.30 C53.60,246.83 44.05,265.89 35.86,285.60 ZM 22.47 598.33 C33.01,631.55 47.31,663.38 65.37,693.80 C60.71,685.97 56.28,677.98 52.07,669.86 C39.95,646.43 30.34,623.31 22.47,598.33 ZM 7.10 534.41 C9.02,545.86 11.33,557.15 14.05,568.30 C12.69,562.82 11.39,557.23 10.15,551.50 C9.25,547.33 8.17,541.21 7.10,534.41 ZM 0.36 565.90 C0.53,511.31 0.77,479.84 1.07,479.84 C1.09,479.84 1.11,480.06 1.14,480.50 C1.21,481.78 1.29,483.07 1.37,484.35 C1.27,483.66 1.17,483.03 1.06,482.50 C1.05,482.48 1.05,482.46 1.04,482.46 C0.78,482.46 0.53,515.05 0.36,565.90 ZM 1.04 441.94 C0.95,441.94 0.87,438.06 0.79,430.86 C0.85,435.53 0.92,438.01 0.99,438.01 C0.99,438.01 1.00,438.01 1.00,438.00 C1.16,437.51 1.31,436.75 1.44,435.83 C1.31,437.75 1.19,439.64 1.09,441.50 C1.07,441.80 1.06,441.94 1.04,441.94 ZM 1.99 492.91 C2.38,497.73 2.83,502.52 3.36,507.29 C2.64,501.26 2.14,496.11 1.99,492.91 ZM 1.95 428.87 C2.05,426.30 2.38,422.54 2.96,417.19 C2.60,420.96 2.25,424.91 1.95,428.87 Z" fill="rgb(173,222,204)"/>
<path d="M 0.11 699.75 C0.18,578.06 0.60,480.30 1.06,482.50 C1.51,484.70 1.91,488.74 1.94,491.47 C2.05,500.58 7.07,537.32 10.15,551.50 C19.81,595.99 32.76,632.54 52.07,669.86 C96.36,755.44 166.12,825.37 251.11,869.38 C260.12,874.05 271.33,879.51 276.00,881.51 C280.67,883.52 285.95,885.81 287.73,886.61 C291.47,888.31 294.92,889.57 312.00,895.53 C349.52,908.61 392.09,917.32 431.00,919.89 C438.18,920.36 349.15,920.77 221.75,920.86 L 0.00 921.00 L 0.11 699.75 ZM 485.00 920.34 C498.16,919.43 516.34,917.74 522.50,916.87 C533.00,915.37 563.40,909.34 572.50,906.95 C587.78,902.93 600.53,899.20 606.50,897.01 C609.80,895.80 615.44,893.77 619.04,892.51 C648.85,882.03 683.18,864.56 713.50,844.43 C734.00,830.82 735.12,830.00 751.50,816.70 C774.03,798.40 801.76,770.24 822.10,745.00 C848.67,712.02 879.26,657.68 892.47,620.00 C908.07,575.47 915.33,543.08 919.93,497.50 C920.37,493.10 920.79,586.59 920.87,705.25 L 921.00 921.00 L 700.75 920.83 C579.61,920.73 482.52,920.51 485.00,920.34 ZM 395.86 694.26 C395.78,650.39 395.83,598.68 395.98,579.34 L 396.23 544.17 L 390.87 543.58 C387.92,543.26 378.08,542.52 369.00,541.95 C312.89,538.40 247.36,526.77 213.50,514.33 C195.80,507.83 185.78,503.06 177.36,497.13 C162.83,486.90 158.01,476.78 163.01,466.99 C167.49,458.20 176.62,451.19 194.01,443.18 C228.17,427.45 294.98,414.38 363.50,410.03 C396.43,407.95 394.72,408.21 395.33,405.17 C395.63,403.70 395.79,386.75 395.69,367.50 L 395.50 332.50 L 312.50 332.00 L 229.50 331.50 L 229.24 270.77 L 228.98 210.04 L 231.24 209.50 C232.48,209.20 337.67,209.08 465.00,209.23 L 696.50 209.50 L 696.76 270.74 L 697.02 331.99 L 613.26 332.24 L 529.50 332.50 L 529.50 369.99 L 529.50 407.48 L 534.50 408.15 C537.25,408.52 547.60,409.32 557.50,409.94 C637.94,414.97 712.57,431.01 744.05,450.03 C751.72,454.66 759.40,462.33 761.56,467.49 C773.76,496.68 709.37,524.25 597.00,537.95 C577.00,540.39 546.22,543.00 537.50,543.00 C533.52,543.00 530.83,543.46 530.36,544.23 C529.94,544.91 529.57,596.77 529.55,659.48 L 529.50 773.50 L 462.75 773.76 L 396.00 774.01 L 395.86 694.26 ZM 552.50 516.55 C619.78,511.93 685.13,499.33 713.10,485.57 C735.18,474.72 737.82,461.33 720.02,450.51 C696.68,436.33 644.25,425.02 572.00,418.56 C553.29,416.89 530.03,415.54 529.94,416.11 C529.91,416.33 529.63,435.85 529.32,459.50 C529.02,483.15 528.63,502.65 528.48,502.82 C527.72,503.67 450.18,504.20 424.75,503.53 L 396.00 502.77 L 396.00 459.39 L 396.00 416.00 L 392.16 416.00 C384.49,416.00 344.08,419.11 326.83,421.03 C259.12,428.56 211.75,441.47 197.09,456.41 C193.63,459.93 192.68,461.70 192.27,465.32 C191.79,469.58 192.01,470.10 196.32,474.71 C209.34,488.62 248.99,501.16 306.22,509.46 C360.03,517.26 391.67,518.97 473.00,518.47 C510.61,518.24 537.19,517.60 552.50,516.55 ZM 0.10 220.25 L 0.00 0.00 L 217.25 0.07 C336.74,0.10 433.60,0.51 432.50,0.97 C431.40,1.43 424.42,2.33 417.00,2.98 C394.45,4.93 374.98,8.34 348.00,15.05 C294.25,28.40 242.90,52.40 193.00,87.47 C168.78,104.49 127.92,142.43 108.72,165.72 C79.77,200.82 55.63,239.67 39.27,277.50 C23.17,314.71 10.20,359.36 6.01,392.00 C3.20,413.89 2.01,424.94 1.91,430.00 C1.85,433.02 1.44,436.62 1.00,438.00 C0.56,439.38 0.15,341.39 0.10,220.25 ZM 918.21 408.00 C911.68,353.71 897.74,306.78 873.49,257.51 C851.64,213.12 823.43,173.74 787.55,137.53 C764.61,114.39 756.75,107.76 719.50,80.13 C711.80,74.42 683.36,57.82 667.64,49.86 C615.59,23.50 561.83,8.10 502.70,2.61 C494.56,1.85 487.62,0.95 487.28,0.62 C486.94,0.28 584.39,0.00 703.83,0.00 L 921.00 0.00 L 921.00 213.50 C921.00,330.92 920.89,427.00 920.75,427.00 C920.61,427.00 919.46,418.45 918.21,408.00 Z" fill="rgb(252,253,253)"/>
</g>
</svg>