<?xml version="1.0" encoding="UTF-8"?>
<svg version="1.1" xmlns="http://www.w3.org/2000/svg" width="101" height="101">
<path d="M0 0 C33.33 0 66.66 0 101 0 C101 33.33 101 66.66 101 101 C67.67 101 34.34 101 0 101 C0 67.67 0 34.34 0 0 Z " fill="#359E75" transform="translate(0,0)"/>
<path d="M0 0 C1.35568336 0.00333092 1.35568336 0.00333092 2.73875427 0.00672913 C3.75973709 0.00680466 4.78071991 0.00688019 5.8326416 0.00695801 C6.94304306 0.01211929 8.05344452 0.01728058 9.19749451 0.02259827 C10.89336952 0.02472069 10.89336952 0.02472069 12.62350464 0.02688599 C16.25105891 0.03250433 19.8785525 0.04505994 23.50608826 0.05775452 C25.95856133 0.06276715 28.41103536 0.06733047 30.86351013 0.07142639 C36.89022371 0.08247971 42.91690165 0.09923568 48.94358826 0.12025452 C50.31611557 2.86530915 50.07588081 5.12352864 50.06858826 8.18275452 C50.07245544 9.80890686 50.07245544 9.80890686 50.07640076 11.46791077 C49.94358826 14.12025452 49.94358826 14.12025452 48.94358826 15.12025452 C46.24936221 15.35720599 43.58024215 15.54194054 40.88108826 15.68275452 C38.26171326 15.82712952 35.64233826 15.97150452 32.94358826 16.12025452 C33.43858826 24.04025452 33.43858826 24.04025452 33.94358826 32.12025452 C35.89265076 31.87275452 35.89265076 31.87275452 37.88108826 31.62025452 C42.59778113 31.08869072 47.19997761 31.04495911 51.94358826 31.12025452 C51.94358826 30.13025452 51.94358826 29.14025452 51.94358826 28.12025452 C53.59358826 28.12025452 55.24358826 28.12025452 56.94358826 28.12025452 C56.63108826 30.49525452 56.63108826 30.49525452 55.94358826 33.12025452 C49.74142075 37.25503286 42.64266687 37.42907197 35.38499451 37.87416077 C32.9982549 37.854713 32.9982549 37.854713 31.94358826 39.12025452 C31.78594421 40.89895178 31.69258149 42.68343928 31.62718201 44.46791077 C31.56434021 46.08729553 31.56434021 46.08729553 31.50022888 47.73939514 C31.46091248 48.87570374 31.42159607 50.01201233 31.38108826 51.18275452 C31.31631287 52.89301819 31.31631287 52.89301819 31.25022888 54.63783264 C31.14375987 57.46517647 31.04174618 60.2926119 30.94358826 63.12025452 C28.63115034 63.14710863 26.31862556 63.16658293 24.00608826 63.18275452 C22.71831482 63.19435608 21.43054138 63.20595764 20.10374451 63.21791077 C16.94358826 63.12025452 16.94358826 63.12025452 15.94358826 62.12025452 C15.85632603 60.33954205 15.83659785 58.55542312 15.84593201 56.77259827 C15.84915466 55.69300842 15.85237732 54.61341858 15.85569763 53.50111389 C15.86407654 52.3648053 15.87245544 51.2284967 15.88108826 50.05775452 C15.88559998 48.91757874 15.89011169 47.77740295 15.89476013 46.60267639 C15.90659078 43.775151 15.92307416 40.94772812 15.94358826 38.12025452 C14.5999823 38.18176697 14.5999823 38.18176697 13.22923279 38.24452209 C5.60055743 38.54799559 -0.2835802 37.72374822 -7.05641174 34.12025452 C-8.05641174 33.12025452 -8.05641174 33.12025452 -8.11891174 30.55775452 C-8.09828674 29.75337952 -8.07766174 28.94900452 -8.05641174 28.12025452 C-7.06641174 28.12025452 -6.07641174 28.12025452 -5.05641174 28.12025452 C-4.72641174 29.11025452 -4.39641174 30.10025452 -4.05641174 31.12025452 C-3.11668518 31.21113342 -3.11668518 31.21113342 -2.15797424 31.30384827 C-1.34070862 31.38763733 -0.52344299 31.47142639 0.31858826 31.55775452 C1.53675232 31.67957092 1.53675232 31.67957092 2.77952576 31.80384827 C4.94358826 32.12025452 4.94358826 32.12025452 6.94358826 33.12025452 C8.48027691 33.34493282 10.0232688 33.52822257 11.56858826 33.68275452 C13.01233826 33.82712952 14.45608826 33.97150452 15.94358826 34.12025452 C15.61358826 28.18025452 15.28358826 22.24025452 14.94358826 16.12025452 C12.71608826 15.99650452 10.48858826 15.87275452 8.19358826 15.74525452 C0.47930254 15.31668309 0.47930254 15.31668309 -3.05641174 13.12025452 C-3.08327727 11.14116054 -3.1027455 9.16196481 -3.11891174 7.18275452 C-3.13051331 6.08060608 -3.14211487 4.97845764 -3.15406799 3.84291077 C-3.02257024 0.17675338 -3.02257024 0.17675338 0 0 Z " fill="#B5DACB" transform="translate(27.056411743164063,21.879745483398438)"/>
<path d="M0 0 C15.84 0 31.68 0 48 0 C48 2.97 48 5.94 48 9 C42.06 9.33 36.12 9.66 30 10 C29.67 15.94 29.34 21.88 29 28 C25.7 28 22.4 28 19 28 C18.93941406 26.78441406 18.87882812 25.56882812 18.81640625 24.31640625 C18.73201668 22.73175772 18.6473679 21.14712298 18.5625 19.5625 C18.52318359 18.76005859 18.48386719 17.95761719 18.44335938 17.13085938 C18.5945704 13.24760439 18.5945704 13.24760439 17 10 C14.14122091 9.76298761 11.30116703 9.57780818 8.4375 9.4375 C7.63119141 9.39431641 6.82488281 9.35113281 5.99414062 9.30664062 C3.99631195 9.20024738 1.9981793 9.09959112 0 9 C0 6.03 0 3.06 0 0 Z " fill="#F7FCF9" transform="translate(27,25)"/>
<path d="M0 0 C0.99 0.33 1.98 0.66 3 1 C3.75967163 2.68448926 4.51095171 4.37418975 5.1875 6.09375 C6.86445228 10.02813804 9.24209574 13.24209574 12.25 16.25 C12.8275 16.8275 13.405 17.405 14 18 C14 18.66 14 19.32 14 20 C14.99 20.33 15.98 20.66 17 21 C17 21.66 17 22.32 17 23 C17.763125 23.2475 18.52625 23.495 19.3125 23.75 C22 25 22 25 23.375 26.9375 C25.71092957 29.90233369 28.52938956 30.67485783 32 32 C32.99 32.495 32.99 32.495 34 33 C34 33.66 34 34.32 34 35 C34.66 35 35.32 35 36 35 C36 35.66 36 36.32 36 37 C24.12 37 12.24 37 0 37 C0 24.79 0 12.58 0 0 Z " fill="#FBFDFC" transform="translate(0,64)"/>
<path d="M0 0 C11.55 0 23.1 0 35 0 C35 11.88 35 23.76 35 36 C34.34 36 33.68 36 33 36 C32.51080078 34.75283203 32.51080078 34.75283203 32.01171875 33.48046875 C31.57472656 32.39378906 31.13773438 31.30710937 30.6875 30.1875 C30.25824219 29.10855469 29.82898438 28.02960937 29.38671875 26.91796875 C28.13004321 24.27364022 27.28420704 22.76747126 25 21 C24.01 20.67 23.02 20.34 22 20 C22 19.01 22 18.02 22 17 C21.01 16.67 20.02 16.34 19 16 C19 15.34 19 14.68 19 14 C18.0409375 13.8453125 18.0409375 13.8453125 17.0625 13.6875 C16.0415625 13.3471875 16.0415625 13.3471875 15 13 C14.67 12.01 14.34 11.02 14 10 C12.35 10 10.7 10 9 10 C8.938125 9.21625 8.87625 8.4325 8.8125 7.625 C8.544375 6.75875 8.27625 5.8925 8 5 C5.65245602 3.66096786 5.65245602 3.66096786 3 3 C2.01 2.67 1.02 2.34 0 2 C0 1.34 0 0.68 0 0 Z " fill="#FBFCFC" transform="translate(66,0)"/>
<path d="M0 0 C11.88 0 23.76 0 36 0 C36 0.66 36 1.32 36 2 C34.948125 2.433125 33.89625 2.86625 32.8125 3.3125 C28.42247461 5.21543439 24.91284664 6.81053317 21.9375 10.6875 C21.298125 11.450625 20.65875 12.21375 20 13 C18.68 13 17.36 13 16 13 C15.59007812 13.8971875 15.59007812 13.8971875 15.171875 14.8125 C14.03839524 16.92832889 12.90826864 18.28823882 11.25 20 C7.06727947 24.70813616 4.62652549 30.32782262 2 36 C1.34 36 0.68 36 0 36 C0 24.12 0 12.24 0 0 Z " fill="#FAFDFC" transform="translate(0,0)"/>
<path d="M0 0 C0.66 0 1.32 0 2 0 C2 11.22 2 22.44 2 34 C-11.53 34 -25.06 34 -39 34 C-38.67 33.01 -38.34 32.02 -38 31 C-35.234375 29.9375 -35.234375 29.9375 -31.75 29 C-20.96748293 26.0726198 -10.54756649 18.22826492 -3.8125 9.1875 C-2.08896558 6.1564567 -0.90227975 3.36304271 0 0 Z " fill="#F7FBFA" transform="translate(99,67)"/>
<path d="M0 0 C0.66 0.33 1.32 0.66 2 1 C2.02685412 3.31243792 2.04632841 5.6249627 2.0625 7.9375 C2.07410156 9.22527344 2.08570312 10.51304688 2.09765625 11.83984375 C2 15 2 15 1 16 C-1.69235776 16.23678716 -4.36498156 16.42198025 -7.0625 16.5625 C-8.20041992 16.62727539 -8.20041992 16.62727539 -9.36132812 16.69335938 C-11.24065438 16.79973633 -13.12030244 16.90039934 -15 17 C-15 18.98 -15 20.96 -15 23 C-14.02160156 22.96519531 -13.04320312 22.93039063 -12.03515625 22.89453125 C-4.40738083 22.73702556 1.8685332 22.99727714 9 26 C9.75 28.75 9.75 28.75 10 32 C7.86036912 35.34898746 5.58773008 36.26100816 1.875 37.1875 C0.59625 37.455625 -0.6825 37.72375 -2 38 C-2.99 38.495 -2.99 38.495 -4 39 C-7.96 39 -11.92 39 -16 39 C-16 46.92 -16 54.84 -16 63 C-16.66 63 -17.32 63 -18 63 C-18.05785647 59.04172765 -18.09354717 55.0835633 -18.125 51.125 C-18.14175781 49.99707031 -18.15851562 48.86914062 -18.17578125 47.70703125 C-18.18222656 46.63066406 -18.18867187 45.55429688 -18.1953125 44.4453125 C-18.20578613 43.45031738 -18.21625977 42.45532227 -18.22705078 41.43017578 C-18 39 -18 39 -16 37 C-13.53125 36.69140625 -13.53125 36.69140625 -10.5 36.5625 C-4.78498601 36.15625202 0.80824986 35.58540783 6 33 C7.74324087 30.49505992 7.74324087 30.49505992 8 28 C6.35 28 4.7 28 3 28 C3 28.99 3 29.98 3 31 C0.02149379 31.36076001 -2.95756784 31.71390416 -5.9375 32.0625 C-6.78763672 32.16626953 -7.63777344 32.27003906 -8.51367188 32.37695312 C-9.32255859 32.47041016 -10.13144531 32.56386719 -10.96484375 32.66015625 C-12.08814087 32.79369507 -12.08814087 32.79369507 -13.23413086 32.92993164 C-14.10823608 32.96461548 -14.10823608 32.96461548 -15 33 C-17.05942471 30.94057529 -16.45906816 26.84036265 -16.625 24 C-16.70234375 22.87464844 -16.70234375 22.87464844 -16.78125 21.7265625 C-16.89826517 19.81990351 -16.9539329 17.90969078 -17 16 C-14.94077598 13.94077598 -10.78291876 14.58572421 -7.9375 14.4375 C-7.17888672 14.39431641 -6.42027344 14.35113281 -5.63867188 14.30664062 C-3.75934562 14.20026367 -1.87969756 14.09960066 0 14 C0 9.38 0 4.76 0 0 Z " fill="#67B698" transform="translate(76,22)"/>
<path d="M0 0 C0.99 0.33 1.98 0.66 3 1 C6.64593517 1.30883216 10.29240545 1.50958559 13.9453125 1.71875 C17 2 17 2 18 3 C18.08631874 4.34267413 18.10706473 5.68974322 18.09765625 7.03515625 C18.09443359 7.84404297 18.09121094 8.65292969 18.08789062 9.48632812 C18.07951172 10.33646484 18.07113281 11.18660156 18.0625 12.0625 C18.05798828 12.91650391 18.05347656 13.77050781 18.04882812 14.65039062 C18.03700373 16.76695663 18.01906769 18.88348685 18 21 C16.54176788 21.0270043 15.08339325 21.04639787 13.625 21.0625 C12.81289063 21.07410156 12.00078125 21.08570312 11.1640625 21.09765625 C9 21 9 21 7 20 C5.46331135 19.77532169 3.92031946 19.59203195 2.375 19.4375 C1.55773438 19.35371094 0.74046875 19.26992188 -0.1015625 19.18359375 C-1.04128906 19.09271484 -1.04128906 19.09271484 -2 19 C-2.33 17.68 -2.66 16.36 -3 15 C-3.99 15 -4.98 15 -6 15 C-5.67 16.65 -5.34 18.3 -5 20 C-3.02 20.66 -1.04 21.32 1 22 C1 22.33 1 22.66 1 23 C-1.31 23 -3.62 23 -6 23 C-6.33 21.68 -6.66 20.36 -7 19 C-7.66 19 -8.32 19 -9 19 C-9 17.68 -9 16.36 -9 15 C-8.34 15 -7.68 15 -7 15 C-7 14.01 -7 13.02 -7 12 C-6.195625 11.87625 -5.39125 11.7525 -4.5625 11.625 C-3.716875 11.41875 -2.87125 11.2125 -2 11 C-1.67 10.34 -1.34 9.68 -1 9 C1.71446979 8.68758545 4.33909361 8.48663408 7.0625 8.375 C7.82111328 8.33632813 8.57972656 8.29765625 9.36132812 8.2578125 C11.24047195 8.16326438 13.12020336 8.08053244 15 8 C15.33 6.35 15.66 4.7 16 3 C11.05 3 6.1 3 1 3 C0.67 2.01 0.34 1.02 0 0 Z " fill="#5DB190" transform="translate(25,35)"/>
<path d="M0 0 C3.63 0 7.26 0 11 0 C11 8.25 11 16.5 11 25 C7.37 25 3.74 25 0 25 C0 16.75 0 8.5 0 0 Z " fill="#FBFCFB" transform="translate(45,59)"/>
<path d="M0 0 C0.86825912 0.00222061 1.73651825 0.00444122 2.63108826 0.00672913 C3.61202957 0.00680466 4.59297089 0.00688019 5.6036377 0.00695801 C6.6702916 0.01211929 7.7369455 0.01728058 8.83592224 0.02259827 C9.92211349 0.02401321 11.00830475 0.02542816 12.12741089 0.02688599 C15.61230674 0.03250403 19.09713941 0.04505959 22.58201599 0.05775452 C24.93813486 0.06276719 27.29425473 0.0673305 29.65037537 0.07142639 C35.44011063 0.08247933 41.2298088 0.09923501 47.01951599 0.12025452 C47.01951599 0.78025452 47.01951599 1.44025452 47.01951599 2.12025452 C31.17951599 2.12025452 15.33951599 2.12025452 -0.98048401 2.12025452 C-0.98048401 5.09025452 -0.98048401 8.06025452 -0.98048401 11.12025452 C0.22350037 11.09705139 1.42748474 11.07384827 2.66795349 11.04994202 C4.24346814 11.03118589 5.81898947 11.01298552 7.39451599 10.99525452 C8.18857849 10.9784967 8.98264099 10.96173889 9.80076599 10.94447327 C11.87443615 10.92689979 13.94834841 11.01690284 16.01951599 11.12025452 C18.01951599 13.12025452 18.01951599 13.12025452 18.21482849 17.03431702 C18.20151975 18.60474802 18.17765202 20.17511673 18.14451599 21.74525452 C18.13549255 22.54705139 18.12646912 23.34884827 18.11717224 24.17494202 C18.09357822 26.15683974 18.05770664 28.13858432 18.01951599 30.12025452 C21.31951599 30.12025452 24.61951599 30.12025452 28.01951599 30.12025452 C28.01951599 30.45025452 28.01951599 30.78025452 28.01951599 31.12025452 C24.38951599 31.12025452 20.75951599 31.12025452 17.01951599 31.12025452 C17.01951599 25.51025452 17.01951599 19.90025452 17.01951599 14.12025452 C15.65955505 14.05966858 14.29959412 13.99908264 12.89842224 13.93666077 C11.12627502 13.8522728 9.35414022 13.76762394 7.58201599 13.68275452 C6.68418396 13.64343811 5.78635193 13.6041217 4.86131287 13.56361389 C4.00730896 13.52171936 3.15330505 13.47982483 2.27342224 13.43666077 C1.08728333 13.38167419 1.08728333 13.38167419 -0.12281799 13.32557678 C-1.98048401 13.12025452 -1.98048401 13.12025452 -2.98048401 12.12025452 C-3.07899572 10.28909569 -3.1102103 8.45405518 -3.10548401 6.62025452 C-3.10806213 5.61994202 -3.11064026 4.61962952 -3.11329651 3.58900452 C-2.92978751 0.177896 -2.92978751 0.177896 0 0 Z " fill="#BEE6D6" transform="translate(27.980484008789063,22.879745483398438)"/>
<path d="M0 0 C0.87938232 0.00410889 1.75876465 0.00821777 2.66479492 0.01245117 C4.11015625 0.01535156 4.11015625 0.01535156 5.5847168 0.01831055 C6.59469727 0.03055664 7.60467773 0.04280273 8.64526367 0.05541992 C9.64364258 0.05606445 10.64202148 0.05670898 11.6706543 0.05737305 C16.21345151 0.08461167 20.38576309 0.24120818 24.83276367 1.24291992 C23.84276367 2.72791992 23.84276367 2.72791992 22.83276367 4.24291992 C22.46526979 6.85581486 22.46526979 6.85581486 22.41870117 9.78588867 C22.3800293 10.8590332 22.34135742 11.93217773 22.30151367 13.0378418 C22.25510742 14.71716797 22.25510742 14.71716797 22.20776367 16.43041992 C22.1690918 17.56157227 22.13041992 18.69272461 22.09057617 19.8581543 C21.99623835 22.65291242 21.91064716 25.4476627 21.83276367 28.24291992 C19.52032575 28.26977404 17.20780097 28.28924833 14.89526367 28.30541992 C13.60749023 28.31702148 12.3197168 28.32862305 10.99291992 28.34057617 C7.83276367 28.24291992 7.83276367 28.24291992 6.83276367 27.24291992 C6.74550144 25.46220746 6.72577326 23.67808852 6.73510742 21.89526367 C6.73833008 20.81567383 6.74155273 19.73608398 6.74487305 18.6237793 C6.75325195 17.4874707 6.76163086 16.35116211 6.77026367 15.18041992 C6.77477539 14.04024414 6.77928711 12.90006836 6.78393555 11.7253418 C6.79576607 8.89784574 6.81370217 6.07037647 6.83276367 3.24291992 C3.20276367 2.91291992 -0.42723633 2.58291992 -4.16723633 2.24291992 C-2.16723633 0.24291992 -2.16723633 0.24291992 0 0 Z M8.83276367 2.24291992 C8.83276367 10.49291992 8.83276367 18.74291992 8.83276367 27.24291992 C12.46276367 27.24291992 16.09276367 27.24291992 19.83276367 27.24291992 C19.83276367 18.99291992 19.83276367 10.74291992 19.83276367 2.24291992 C16.20276367 2.24291992 12.57276367 2.24291992 8.83276367 2.24291992 Z " fill="#B5DECD" transform="translate(36.167236328125,56.757080078125)"/>
<path d="M0 0 C1.35568336 0.00333092 1.35568336 0.00333092 2.73875427 0.00672913 C3.75973709 0.00680466 4.78071991 0.00688019 5.8326416 0.00695801 C6.94304306 0.01211929 8.05344452 0.01728058 9.19749451 0.02259827 C10.89336952 0.02472069 10.89336952 0.02472069 12.62350464 0.02688599 C16.25105891 0.03250433 19.8785525 0.04505994 23.50608826 0.05775452 C25.95856133 0.06276715 28.41103536 0.06733047 30.86351013 0.07142639 C36.89022371 0.08247971 42.91690165 0.09923568 48.94358826 0.12025452 C50.31611557 2.86530915 50.07588081 5.12352864 50.06858826 8.18275452 C50.07245544 9.80890686 50.07245544 9.80890686 50.07640076 11.46791077 C49.94358826 14.12025452 49.94358826 14.12025452 48.94358826 15.12025452 C46.24936221 15.35720599 43.58024215 15.54194054 40.88108826 15.68275452 C38.26171326 15.82712952 35.64233826 15.97150452 32.94358826 16.12025452 C33.43858826 24.04025452 33.43858826 24.04025452 33.94358826 32.12025452 C42.35858826 31.62525452 42.35858826 31.62525452 50.94358826 31.12025452 C50.94358826 31.45025452 50.94358826 31.78025452 50.94358826 32.12025452 C49.66483826 32.42962952 48.38608826 32.73900452 47.06858826 33.05775452 C44.8425715 33.59630696 42.99618826 34.09395451 40.94358826 35.12025452 C39.2365609 35.19021465 37.52690823 35.20465605 35.81858826 35.18275452 C34.90851013 35.17373108 33.99843201 35.16470764 33.06077576 35.15541077 C32.36210388 35.1438092 31.66343201 35.13220764 30.94358826 35.12025452 C29.53149078 31.10526096 30.02253143 27.0960536 30.31858826 22.93275452 C30.36241638 22.1960553 30.40624451 21.45935608 30.45140076 20.70033264 C30.81231517 15.25152761 30.81231517 15.25152761 31.94358826 14.12025452 C34.63594602 13.88346735 37.30856981 13.69827426 40.00608826 13.55775452 C40.76470154 13.51457092 41.52331482 13.47138733 42.30491638 13.42689514 C44.18424263 13.32051818 46.06389069 13.21985518 47.94358826 13.12025452 C47.94358826 9.16025452 47.94358826 5.20025452 47.94358826 1.12025452 C31.77358826 1.45025452 15.60358826 1.78025452 -1.05641174 2.12025452 C-1.38641174 5.75025452 -1.71641174 9.38025452 -2.05641174 13.12025452 C-2.38641174 13.12025452 -2.71641174 13.12025452 -3.05641174 13.12025452 C-3.08327727 11.14116054 -3.1027455 9.16196481 -3.11891174 7.18275452 C-3.13051331 6.08060608 -3.14211487 4.97845764 -3.15406799 3.84291077 C-3.02257024 0.17675338 -3.02257024 0.17675338 0 0 Z " fill="#84C4AB" transform="translate(27.056411743164063,21.879745483398438)"/>
<path d="M0 0 C2.47923801 -0.02685095 4.9581884 -0.04676547 7.4375 -0.0625 C8.14455078 -0.07087891 8.85160156 -0.07925781 9.58007812 -0.08789062 C11.38693559 -0.09653588 13.19387603 -0.05220011 15 0 C17.26425758 2.26425758 16.47492533 7.44112512 16.625 10.5 C16.70234375 11.83998047 16.70234375 11.83998047 16.78125 13.20703125 C16.82507813 14.05652344 16.86890625 14.90601563 16.9140625 15.78125 C16.9548291 16.56564453 16.9955957 17.35003906 17.03759766 18.15820312 C17 20 17 20 16 21 C14.31816052 21.23287008 12.6287584 21.41264166 10.9375 21.5625 C9.55884766 21.68818359 9.55884766 21.68818359 8.15234375 21.81640625 C7.44207031 21.87699219 6.73179688 21.93757813 6 22 C7.98 22.33 9.96 22.66 12 23 C12 23.33 12 23.66 12 24 C4.46956015 24.57679965 -1.24149774 23.39973144 -8 20 C-9 19 -9 19 -9.0625 16.4375 C-9.041875 15.633125 -9.02125 14.82875 -9 14 C-8.01 14 -7.02 14 -6 14 C-5.67 14.99 -5.34 15.98 -5 17 C-4.06027344 17.09087891 -4.06027344 17.09087891 -3.1015625 17.18359375 C-2.28429687 17.26738281 -1.46703125 17.35117187 -0.625 17.4375 C0.59316406 17.55931641 0.59316406 17.55931641 1.8359375 17.68359375 C4 18 4 18 6 19 C7.53668865 19.22467831 9.07968054 19.40796805 10.625 19.5625 C12.06875 19.706875 13.5125 19.85125 15 20 C14.67 14.06 14.34 8.12 14 2 C7.07 1.505 7.07 1.505 0 1 C0 0.67 0 0.34 0 0 Z " fill="#93CBB4" transform="translate(28,36)"/>
<path d="M0 0 C0.99 0.33 1.98 0.66 3 1 C3.75967163 2.68448926 4.51095171 4.37418975 5.1875 6.09375 C6.86445228 10.02813804 9.24209574 13.24209574 12.25 16.25 C12.8275 16.8275 13.405 17.405 14 18 C14 18.66 14 19.32 14 20 C14.99 20.33 15.98 20.66 17 21 C17 21.66 17 22.32 17 23 C17.763125 23.2475 18.52625 23.495 19.3125 23.75 C22 25 22 25 23.375 26.9375 C25.69909007 29.88730663 28.56523475 30.6260939 32 32 C32.66 32.66 33.32 33.32 34 34 C21.72516556 31.76821192 21.72516556 31.76821192 18 27 C18 26.34 18 25.68 18 25 C17.01 24.67 16.02 24.34 15 24 C15 23.34 15 22.68 15 22 C14.01 21.67 13.02 21.34 12 21 C12 20.34 12 19.68 12 19 C11.01 18.67 10.02 18.34 9 18 C8.67 17.01 8.34 16.02 8 15 C7.02246356 13.97803008 6.0194119 12.98020375 5 12 C2.57849946 9.39912905 2.02170162 8.37616148 1.8125 4.75 C1.874375 3.8425 1.93625 2.935 2 2 C1.34 2 0.68 2 0 2 C0 1.34 0 0.68 0 0 Z " fill="#7DBFA7" transform="translate(0,64)"/>
<path d="M0 0 C4.8887941 0.03133842 8.48099801 1.30534459 12.9375 3.25 C12.9375 4.24 12.9375 5.23 12.9375 6.25 C10.12570232 6.6107927 7.31331501 6.9639278 4.5 7.3125 C3.69755859 7.41626953 2.89511719 7.52003906 2.06835938 7.62695312 C0.02942132 7.87644343 -2.01645061 8.06780318 -4.0625 8.25 C-5.0625 7.25 -5.0625 7.25 -5.1875 4.25 C-5.00356761 -0.16437729 -4.05205302 0.08340418 0 0 Z " fill="#43A37F" transform="translate(65.0625,46.75)"/>
<path d="M0 0 C1.32 0 2.64 0 4 0 C4 0.66 4 1.32 4 2 C5.216875 2.04125 6.43375 2.0825 7.6875 2.125 C11.17376577 2.5322452 12.68434318 3.25016651 14.875 6 C15.926875 7.485 15.926875 7.485 17 9 C17.66 9.33 18.32 9.66 19 10 C19.33333333 11.66666667 19.66666667 13.33333333 20 15 C20.66 15.33 21.32 15.66 22 16 C22 17.65 22 19.3 22 21 C21.13375 19.824375 21.13375 19.824375 20.25 18.625 C18.17102363 16.19952756 16.90959667 15.14305583 14 14 C14 13.01 14 12.02 14 11 C13.01 10.67 12.02 10.34 11 10 C11 9.34 11 8.68 11 8 C10.360625 7.896875 9.72125 7.79375 9.0625 7.6875 C8.381875 7.460625 7.70125 7.23375 7 7 C6.67 6.01 6.34 5.02 6 4 C4.35 4 2.7 4 1 4 C0.67 2.68 0.34 1.36 0 0 Z " fill="#C2E5D7" transform="translate(74,6)"/>
<path d="M0 0 C3.63 0 7.26 0 11 0 C11 8.25 11 16.5 11 25 C7.37 25 3.74 25 0 25 C0 16.75 0 8.5 0 0 Z M1 2 C1 8.6 1 15.2 1 22 C3.97 22 6.94 22 10 22 C10 15.4 10 8.8 10 2 C7.03 2 4.06 2 1 2 Z " fill="#E7F9F0" transform="translate(45,59)"/>
<path d="M0 0 C0.66 0 1.32 0 2 0 C2 0.66 2 1.32 2 2 C5.96 2 9.92 2 14 2 C14 2.33 14 2.66 14 3 C10.7 3 7.4 3 4 3 C4 3.66 4 4.32 4 5 C2.02 5.99 2.02 5.99 0 7 C0.33 7.66 0.66 8.32 1 9 C-0.65 8.67 -2.3 8.34 -4 8 C-4 7.01 -4 6.02 -4 5 C-4.99 5 -5.98 5 -7 5 C-6.67 6.65 -6.34 8.3 -6 10 C-4.02 10.66 -2.04 11.32 0 12 C0 12.33 0 12.66 0 13 C-2.31 13 -4.62 13 -7 13 C-7.33 11.68 -7.66 10.36 -8 9 C-8.66 9 -9.32 9 -10 9 C-10 7.68 -10 6.36 -10 5 C-9.34 5 -8.68 5 -8 5 C-8 4.01 -8 3.02 -8 2 C-6.2984375 1.7834375 -6.2984375 1.7834375 -4.5625 1.5625 C-1.19222799 1.38828522 -1.19222799 1.38828522 0 0 Z " fill="#58AF8E" transform="translate(26,45)"/>
<path d="M0 0 C0.52078125 0.15339844 1.0415625 0.30679688 1.578125 0.46484375 C4.63278515 1.13982511 7.63015971 1.34411118 10.75 1.5625 C12.8125 1.706875 14.875 1.85125 17 2 C17.33 9.92 17.66 17.84 18 26 C24.93 26.495 24.93 26.495 32 27 C32 27.33 32 27.66 32 28 C27.05 28 22.1 28 17 28 C15.32975027 23.82437568 14.75110086 22.2896834 14.8046875 18.13671875 C14.81435547 16.80737305 14.81435547 16.80737305 14.82421875 15.45117188 C14.84097656 14.53916016 14.85773437 13.62714844 14.875 12.6875 C14.88402344 11.75615234 14.89304687 10.82480469 14.90234375 9.86523438 C14.92581578 7.57671177 14.96168391 5.28832221 15 3 C10.05 3 5.1 3 0 3 C0 2.01 0 1.02 0 0 Z " fill="#63B393" transform="translate(26,58)"/>
<path d="M0 0 C0.33 0 0.66 0 1 0 C1.02688151 1.64574566 1.04634123 3.29161413 1.0625 4.9375 C1.07410156 5.85402344 1.08570312 6.77054688 1.09765625 7.71484375 C1 10 1 10 0 11 C-2.69422605 11.23695148 -5.36334611 11.42168602 -8.0625 11.5625 C-11.9915625 11.7790625 -11.9915625 11.7790625 -16 12 C-16.33 17.28 -16.66 22.56 -17 28 C-17.66 28 -18.32 28 -19 28 C-19.02683987 25.02077407 -19.04676037 22.04178705 -19.0625 19.0625 C-19.07087891 18.21236328 -19.07925781 17.36222656 -19.08789062 16.48632812 C-19.09111328 15.67744141 -19.09433594 14.86855469 -19.09765625 14.03515625 C-19.10289307 13.2862915 -19.10812988 12.53742676 -19.11352539 11.76586914 C-19 10 -19 10 -18 9 C-16.65732587 8.91368126 -15.31025678 8.89293527 -13.96484375 8.90234375 C-13.15595703 8.90556641 -12.34707031 8.90878906 -11.51367188 8.91210938 C-10.66353516 8.92048828 -9.81339844 8.92886719 -8.9375 8.9375 C-8.08349609 8.94201172 -7.22949219 8.94652344 -6.34960938 8.95117188 C-4.23304337 8.96299627 -2.11651315 8.98093231 0 9 C0 6.03 0 3.06 0 0 Z " fill="#C7E4D8" transform="translate(75,25)"/>
<path d="M0 0 C0.33 0 0.66 0 1 0 C1 2.64 1 5.28 1 8 C2.20398438 7.97679687 3.40796875 7.95359375 4.6484375 7.9296875 C6.22395215 7.91093137 7.79947348 7.89273101 9.375 7.875 C10.1690625 7.85824219 10.963125 7.84148438 11.78125 7.82421875 C13.85492015 7.80664527 15.92883241 7.89664832 18 8 C20 10 20 10 20.1953125 13.9140625 C20.18200376 15.48449351 20.15813602 17.05486221 20.125 18.625 C20.11597656 19.42679688 20.10695313 20.22859375 20.09765625 21.0546875 C20.07406223 23.03658523 20.03819065 25.01832981 20 27 C23.3 27 26.6 27 30 27 C30 27.33 30 27.66 30 28 C26.37 28 22.74 28 19 28 C19 22.39 19 16.78 19 11 C12.73 10.67 6.46 10.34 0 10 C0 6.7 0 3.4 0 0 Z " fill="#D4EDE3" transform="translate(26,26)"/>
<path d="M0 0 C5.5092204 3.3667458 7.15278396 8.07652511 9 14 C9 14.66 9 15.32 9 16 C9.66 16 10.32 16 11 16 C11 18.64 11 21.28 11 24 C10.01 24 9.02 24 8 24 C5.78209188 18.04610102 3.68308166 12.13122606 2 6 C1.34427209 3.99638693 0.68124706 1.99508067 0 0 Z " fill="#54AB8A" transform="translate(90,20)"/>
<path d="M0 0 C3.63 0 7.26 0 11 0 C10.67 0.99 10.34 1.98 10 3 C9.26394531 3.10957031 8.52789062 3.21914063 7.76953125 3.33203125 C2.45106884 4.19619357 -1.42621653 5.07786056 -6 8 C-9.8125 8.6875 -9.8125 8.6875 -13 9 C-10.21486635 4.82229952 -7.59438359 3.3309098 -2.6875 2.3125 C-1.800625 2.209375 -0.91375 2.10625 0 2 C0 1.34 0 0.68 0 0 Z " fill="#64B394" transform="translate(36,0)"/>
<path d="M0 0 C0 0.66 0 1.32 0 2 C-1.051875 2.433125 -2.10375 2.86625 -3.1875 3.3125 C-7.57752539 5.21543439 -11.08715336 6.81053317 -14.0625 10.6875 C-14.701875 11.450625 -15.34125 12.21375 -16 13 C-17.32 13 -18.64 13 -20 13 C-20.28875 13.639375 -20.5775 14.27875 -20.875 14.9375 C-22 17 -22 17 -24 18 C-22.69063102 15.07909997 -21.24380538 13.24380538 -19 11 C-18.67 10.01 -18.34 9.02 -18 8 C-17.01 8 -16.02 8 -15 8 C-14.67 7.01 -14.34 6.02 -14 5 C-13.01 5 -12.02 5 -11 5 C-10.67 4.01 -10.34 3.02 -10 2 C-6.3962102 0.47839986 -3.94779314 0 0 0 Z " fill="#D5F0E4" transform="translate(36,0)"/>
<path d="M0 0 C1.65 0 3.3 0 5 0 C4.6875 2.375 4.6875 2.375 4 5 C1.3851183 6.74325447 -0.0053433 7.41587957 -2.9375 8.125 C-3.60652344 8.29257812 -4.27554688 8.46015625 -4.96484375 8.6328125 C-7 9 -7 9 -11 9 C-11 8.01 -11 7.02 -11 6 C-7.73454239 4.11608215 -4.71888239 3.50712033 -1 3 C-0.67 2.01 -0.34 1.02 0 0 Z " fill="#A2D9C1" transform="translate(79,50)"/>
<path d="M0 0 C3.3 0 6.6 0 10 0 C10 1.65 10 3.3 10 5 C5.38 5 0.76 5 -4 5 C-4 4.01 -4 3.02 -4 2 C-2.68 2 -1.36 2 0 2 C0 1.34 0 0.68 0 0 Z " fill="#399F79" transform="translate(30,48)"/>
<path d="M0 0 C0.66 0.33 1.32 0.66 2 1 C-11.55555556 14 -11.55555556 14 -19 14 C-19 14.66 -19 15.32 -19 16 C-21.31 16 -23.62 16 -26 16 C-25.67 15.01 -25.34 14.02 -25 13 C-22.234375 11.9375 -22.234375 11.9375 -18.75 11 C-12.52363894 9.30958523 -8.01988997 7.07637351 -3.1875 2.8125 C-2.58292969 2.28269531 -1.97835937 1.75289063 -1.35546875 1.20703125 C-0.68451172 0.60955078 -0.68451172 0.60955078 0 0 Z " fill="#97D0BA" transform="translate(86,85)"/>
<path d="M0 0 C0.66 0 1.32 0 2 0 C2 1.65 2 3.3 2 5 C1.34 5 0.68 5 0 5 C-0.2475 6.03125 -0.495 7.0625 -0.75 8.125 C-2.52216632 14.25942188 -5.85394932 18.28340784 -11 22 C-10.690625 21.4225 -10.38125 20.845 -10.0625 20.25 C-8.9327131 18.0661063 -8.9327131 18.0661063 -8.5 15.8125 C-8.335 15.214375 -8.17 14.61625 -8 14 C-7.34 13.67 -6.68 13.34 -6 13 C-4.94647157 10.69034152 -3.94280904 8.3570226 -3 6 C-2.34 6 -1.68 6 -1 6 C-0.67 4.02 -0.34 2.04 0 0 Z " fill="#83C1A7" transform="translate(99,62)"/>
<path d="M0 0 C0 2.97294941 -0.48045732 4.782955 -1.4375 7.5625 C-1.83775391 8.74005859 -1.83775391 8.74005859 -2.24609375 9.94140625 C-3 12 -3 12 -4 14 C-4.66 14 -5.32 14 -6 14 C-6.33 15.98 -6.66 17.96 -7 20 C-7.66 20 -8.32 20 -9 20 C-9 18.02 -9 16.04 -9 14 C-8.34 14 -7.68 14 -7 14 C-6.773125 12.989375 -6.54625 11.97875 -6.3125 10.9375 C-5.09133139 6.56981665 -2.76115807 3.56044067 0 0 Z " fill="#6EB59A" transform="translate(9,22)"/>
<path d="M0 0 C0.33 0.66 0.66 1.32 1 2 C1.99 2.33 2.98 2.66 4 3 C4.33 3.99 4.66 4.98 5 6 C6.65788785 7.34423339 8.32576317 8.67618483 10 10 C11.37368345 11.63356951 12.71937515 13.2925002 14 15 C13.01 15.33 12.02 15.66 11 16 C8.17315616 14.18274325 6.34689075 12.96062054 5.1875 9.75 C5.125625 9.1725 5.06375 8.595 5 8 C4.34 8 3.68 8 3 8 C3 6.68 3 5.36 3 4 C2.01 4 1.02 4 0 4 C0 2.68 0 1.36 0 0 Z " fill="#DDF5EC" transform="translate(5,76)"/>
<path d="M0 0 C0.66 0 1.32 0 2 0 C4 3 4 3 4 7 C4.66 7 5.32 7 6 7 C6.33 9.97 6.66 12.94 7 16 C4.42054787 13.0045072 2.82639007 10.85648699 2 7 C1.34 6.67 0.68 6.34 0 6 C0 4.02 0 2.04 0 0 Z " fill="#68B798" transform="translate(0,58)"/>
<path d="M0 0 C3.3 0 6.6 0 10 0 C10.33 1.32 10.66 2.64 11 4 C8.03 4 5.06 4 2 4 C2 3.34 2 2.68 2 2 C1.34 2 0.68 2 0 2 C0 1.34 0 0.68 0 0 Z " fill="#4FAB87" transform="translate(34,97)"/>
<path d="M0 0 C0.99 0.33 1.98 0.66 3 1 C3.71072078 2.59066079 4.4095622 4.1879831 5.0390625 5.8125 C6.92429675 10.10409016 9.52909364 14.02575903 12 18 C11.01 18 10.02 18 9 18 C8.67 17.01 8.34 16.02 8 15 C7.02246356 13.97803008 6.0194119 12.98020375 5 12 C2.57849946 9.39912905 2.02170162 8.37616148 1.8125 4.75 C1.874375 3.8425 1.93625 2.935 2 2 C1.34 2 0.68 2 0 2 C0 1.34 0 0.68 0 0 Z " fill="#B1DAC9" transform="translate(0,64)"/>
<path d="M0 0 C2.31 0 4.62 0 7 0 C7 0.66 7 1.32 7 2 C8.1446875 2.1546875 8.1446875 2.1546875 9.3125 2.3125 C12.22636046 3.05790616 13.02950397 3.84458939 15 6 C13.06115111 5.71743908 11.12394039 5.4236207 9.1875 5.125 C8.10855469 4.96257813 7.02960938 4.80015625 5.91796875 4.6328125 C3 4 3 4 0 2 C0 1.34 0 0.68 0 0 Z " fill="#8AC8AF" transform="translate(59,0)"/>
<path d="M0 0 C1.32 0 2.64 0 4 0 C4 0.66 4 1.32 4 2 C6.475 2.99 6.475 2.99 9 4 C9 4.66 9 5.32 9 6 C9.66 6 10.32 6 11 6 C11 6.66 11 7.32 11 8 C9.0625 7.6875 9.0625 7.6875 7 7 C6.67 6.01 6.34 5.02 6 4 C4.35 4 2.7 4 1 4 C0.67 2.68 0.34 1.36 0 0 Z " fill="#87C3AC" transform="translate(74,6)"/>
<path d="M0 0 C0.66 0.61875 1.32 1.2375 2 1.875 C4.74492643 3.81932289 5.98730569 4.38517484 9.125 5.0625 C13.99288256 6.24021352 13.99288256 6.24021352 16 9 C3.72516556 6.76821192 3.72516556 6.76821192 0 2 C0 1.34 0 0.68 0 0 Z " fill="#AAD5C4" transform="translate(18,89)"/>
<path d="M0 0 C0.66 0.33 1.32 0.66 2 1 C3.87056791 1.2275015 5.74685958 1.40962811 7.625 1.5625 C8.62789062 1.64628906 9.63078125 1.73007812 10.6640625 1.81640625 C11.43492188 1.87699219 12.20578125 1.93757813 13 2 C13 2.66 13 3.32 13 4 C8.38 4 3.76 4 -1 4 C-0.67 2.68 -0.34 1.36 0 0 Z " fill="#289B70" transform="translate(62,49)"/>
<path d="M0 0 C0.99 0 1.98 0 3 0 C3.33 0.99 3.66 1.98 4 3 C7.00847418 4.22520264 7.00847418 4.22520264 10 5 C10 5.33 10 5.66 10 6 C8.52093108 6.02689216 7.04172517 6.04634621 5.5625 6.0625 C4.32693359 6.07990234 4.32693359 6.07990234 3.06640625 6.09765625 C1 6 1 6 0 5 C-0.04063832 3.33382885 -0.042721 1.66611905 0 0 Z " fill="#AEDFCB" transform="translate(19,50)"/>
<path d="M0 0 C0.66 0.33 1.32 0.66 2 1 C1.4225 1.66 0.845 2.32 0.25 3 C-2.35741329 6.47655106 -4.16930498 10.07569099 -6 14 C-6.625 12.125 -6.625 12.125 -7 10 C-6.34 9.34 -5.68 8.68 -5 8 C-4.35232207 5.42938689 -4.35232207 5.42938689 -4 3 C-3.34 3 -2.68 3 -2 3 C-2 2.34 -2 1.68 -2 1 C-1.34 0.67 -0.68 0.34 0 0 Z " fill="#BEE2D4" transform="translate(10,18)"/>
<path d="M0 0 C0.90492187 0.02320313 1.80984375 0.04640625 2.7421875 0.0703125 C4.10730469 0.09738281 4.10730469 0.09738281 5.5 0.125 C6.19867188 0.14820313 6.89734375 0.17140625 7.6171875 0.1953125 C7.6171875 1.1853125 7.6171875 2.1753125 7.6171875 3.1953125 C3.6571875 2.8653125 -0.3028125 2.5353125 -4.3828125 2.1953125 C-2.3828125 0.1953125 -2.3828125 0.1953125 0 0 Z " fill="#AFE4CD" transform="translate(36.3828125,56.8046875)"/>
<path d="M0 0 C0.625 1.875 0.625 1.875 1 4 C0.34 4.66 -0.32 5.32 -1 6 C-1.67292501 7.96690374 -1.67292501 7.96690374 -2.125 10.125 C-2.41375 11.40375 -2.7025 12.6825 -3 14 C-3.66 14 -4.32 14 -5 14 C-5 12.35 -5 10.7 -5 9 C-4.34 9 -3.68 9 -3 9 C-2.67 7.02 -2.34 5.04 -2 3 C-1.34 3 -0.68 3 0 3 C0 2.01 0 1.02 0 0 Z " fill="#E0F5EC" transform="translate(5,22)"/>
<path d="M0 0 C2.97 0.99 5.94 1.98 9 3 C9 3.66 9 4.32 9 5 C6.69 5 4.38 5 2 5 C1.34 3.35 0.68 1.7 0 0 Z " fill="#D3F2E8" transform="translate(27,96)"/>
<path d="M0 0 C0.33 0 0.66 0 1 0 C1 1.65 1 3.3 1 5 C-3.29 4.67 -7.58 4.34 -12 4 C-12 3.67 -12 3.34 -12 3 C-10.82630859 2.80083984 -10.82630859 2.80083984 -9.62890625 2.59765625 C-8.61699219 2.42105469 -7.60507812 2.24445312 -6.5625 2.0625 C-5.55316406 1.88847656 -4.54382812 1.71445312 -3.50390625 1.53515625 C-1.0712562 1.25248903 -1.0712562 1.25248903 0 0 Z " fill="#2B976E" transform="translate(39,48)"/>
<path d="M0 0 C0.556875 0.268125 1.11375 0.53625 1.6875 0.8125 C0.4375 2.3125 0.4375 2.3125 -1.3125 3.8125 C-2.6325 3.8125 -3.9525 3.8125 -5.3125 3.8125 C-5.60125 4.451875 -5.89 5.09125 -6.1875 5.75 C-7.3125 7.8125 -7.3125 7.8125 -9.3125 8.8125 C-7.66495848 4.76853446 -4.80734346 -0.3897846 0 0 Z " fill="#A2D1BF" transform="translate(21.3125,9.1875)"/>
<path d="M0 0 C0.91007812 0.10183594 1.82015625 0.20367187 2.7578125 0.30859375 C3.45648438 0.39238281 4.15515625 0.47617187 4.875 0.5625 C4.875 0.8925 4.875 1.2225 4.875 1.5625 C0.60883684 2.70014351 -2.68986311 3.5625 -7.125 3.5625 C-7.125 2.5725 -7.125 1.5825 -7.125 0.5625 C-4.50184968 -0.74907516 -2.89466564 -0.33399988 0 0 Z " fill="#9ACFB9" transform="translate(75.125,55.4375)"/>
<path d="M0 0 C3.41021743 0.78697325 6.68885166 1.87119943 10 3 C10 3.66 10 4.32 10 5 C10.66 5.33 11.32 5.66 12 6 C7.43545749 5.45660208 4.0271824 4.20536179 0 2 C0 1.34 0 0.68 0 0 Z " fill="#DAEFE6" transform="translate(66,0)"/>
<path d="M0 0 C0.66 0 1.32 0 2 0 C2 1.65 2 3.3 2 5 C1.34 5 0.68 5 0 5 C-0.28875 6.134375 -0.5775 7.26875 -0.875 8.4375 C-1.24625 9.613125 -1.6175 10.78875 -2 12 C-2.99 12.495 -2.99 12.495 -4 13 C-3.52140759 11.39566191 -3.04210442 9.79153584 -2.5625 8.1875 C-2.29566406 7.29417969 -2.02882813 6.40085937 -1.75390625 5.48046875 C-1.19612127 3.64526945 -0.60655425 1.81966274 0 0 Z " fill="#A7DAC7" transform="translate(99,62)"/>
<path d="M0 0 C1.485 0.99 1.485 0.99 3 2 C3.1875 4.625 3.1875 4.625 3 7 C1.68 6.67 0.36 6.34 -1 6 C-1.042721 4.33388095 -1.04063832 2.66617115 -1 1 C-0.67 0.67 -0.34 0.34 0 0 Z " fill="#27A173" transform="translate(89,25)"/>
<path d="M0 0 C0.66 0.33 1.32 0.66 2 1 C1.24266726 2.3410477 0.46867264 3.67269781 -0.3125 5 C-0.74175781 5.7425 -1.17101562 6.485 -1.61328125 7.25 C-2.07089844 7.8275 -2.52851563 8.405 -3 9 C-3.99 9 -4.98 9 -6 9 C-4.47291037 5.56404834 -2.40072955 2.88087546 0 0 Z " fill="#65AF94" transform="translate(16,13)"/>
<path d="M0 0 C0.99 0.33 1.98 0.66 3 1 C1.8803014 2.00593243 0.7540588 3.0045849 -0.375 4 C-1.00148438 4.556875 -1.62796875 5.11375 -2.2734375 5.6875 C-4 7 -4 7 -6 7 C-6 5.68 -6 4.36 -6 3 C-4.68 3 -3.36 3 -2 3 C-2 2.34 -2 1.68 -2 1 C-1.34 0.67 -0.68 0.34 0 0 Z " fill="#53A886" transform="translate(81,87)"/>
<path d="M0 0 C0.33 0 0.66 0 1 0 C1.125 6.625 1.125 6.625 0 10 C-0.99 10.33 -1.98 10.66 -3 11 C-3 9.35 -3 7.7 -3 6 C-2.34 6 -1.68 6 -1 6 C-0.67 4.02 -0.34 2.04 0 0 Z " fill="#50AB8A" transform="translate(3,36)"/>
<path d="M0 0 C1.46726798 3.81489674 0.43336419 6.29011622 -1 10 C-1.66 10 -2.32 10 -3 10 C-3 8.02 -3 6.04 -3 4 C-2.34 4 -1.68 4 -1 4 C-0.67 2.68 -0.34 1.36 0 0 Z " fill="#88C8B0" transform="translate(3,32)"/>
<path d="M0 0 C0.99 0.495 0.99 0.495 2 1 C2.625 4.0625 2.625 4.0625 3 7 C3.66 7 4.32 7 5 7 C5 8.32 5 9.64 5 11 C4.34 11 3.68 11 3 11 C0 4.5 0 4.5 0 0 Z " fill="#8AC6B0" transform="translate(96,29)"/>
<path d="M0 0 C0.33 0.99 0.66 1.98 1 3 C0.01 4.485 0.01 4.485 -1 6 C-3.625 6.1875 -3.625 6.1875 -6 6 C-4 4 -2 2 0 0 Z " fill="#D8F2E7" transform="translate(86,87)"/>
<path d="M0 0 C1.32 0 2.64 0 4 0 C4 0.99 4 1.98 4 3 C3.34 3 2.68 3 2 3 C1.67 4.98 1.34 6.96 1 9 C0.67 9 0.34 9 0 9 C0 6.03 0 3.06 0 0 Z " fill="#5EB492" transform="translate(97,59)"/>
<path d="M0 0 C1.2065625 0.0309375 1.2065625 0.0309375 2.4375 0.0625 C2.1075 1.7125 1.7775 3.3625 1.4375 5.0625 C2.4275 5.3925 3.4175 5.7225 4.4375 6.0625 C2.7875 5.7325 1.1375 5.4025 -0.5625 5.0625 C-0.5625 4.0725 -0.5625 3.0825 -0.5625 2.0625 C-1.5525 1.7325 -2.5425 1.4025 -3.5625 1.0625 C-2.5625 0.0625 -2.5625 0.0625 0 0 Z " fill="#79BAA2" transform="translate(22.5625,47.9375)"/>
<path d="M0 0 C4.8 3.32307692 4.8 3.32307692 5.8125 6.75 C5.874375 7.4925 5.93625 8.235 6 9 C1.2 5.67692308 1.2 5.67692308 0.1875 2.25 C0.125625 1.5075 0.06375 0.765 0 0 Z " fill="#80BCA5" transform="translate(90,20)"/>
<path d="M0 0 C0 0.33 0 0.66 0 1 C-1.2065625 1.185625 -1.2065625 1.185625 -2.4375 1.375 C-3.283125 1.58125 -4.12875 1.7875 -5 2 C-5.33 2.66 -5.66 3.32 -6 4 C-7.32 4 -8.64 4 -10 4 C-10 3.01 -10 2.02 -10 1 C-6.61981469 -0.04005702 -3.5219721 -0.08004482 0 0 Z " fill="#4FAC88" transform="translate(66,97)"/>
<path d="M0 0 C1.32 0.33 2.64 0.66 4 1 C4.33 3.31 4.66 5.62 5 8 C4.34 8 3.68 8 3 8 C2.01 5.36 1.02 2.72 0 0 Z " fill="#CDF0E4" transform="translate(96,28)"/>
<path d="M0 0 C5.75 -0.125 5.75 -0.125 8 1 C8 1.66 8 2.32 8 3 C6.02 3 4.04 3 2 3 C2 2.34 2 1.68 2 1 C1.34 0.67 0.68 0.34 0 0 Z " fill="#7FCAAC" transform="translate(34,98)"/>
<path d="M0 0 C1.98 0 3.96 0 6 0 C6 0.66 6 1.32 6 2 C3.29120665 3.35439668 0.99066732 3.06501451 -2 3 C-1.34 2.67 -0.68 2.34 0 2 C0 1.34 0 0.68 0 0 Z " fill="#87C8AD" transform="translate(36,0)"/>
<path d="M0 0 C1.32 0 2.64 0 4 0 C4.66 1.98 5.32 3.96 6 6 C5.01 5.67 4.02 5.34 3 5 C3 4.34 3 3.68 3 3 C2.34 3 1.68 3 1 3 C0.67 2.01 0.34 1.02 0 0 Z " fill="#D5F3E9" transform="translate(82,9)"/>
</svg>
